<?xml version="1.0" encoding="UTF-8"?>
<svg version="1.1" xmlns="http://www.w3.org/2000/svg" width="256" height="256">
<path d="M0 0 C10.86290584 -0.11616109 21.7229331 -0.10652707 32.58587646 0 C34.13396067 0.01514157 35.68205724 0.02907005 37.23016357 0.04174805 C41.59920328 0.07843517 45.96681066 0.13751649 50.33499146 0.23236084 C52.30648049 0.27181145 54.27829472 0.29379069 56.25006104 0.31530762 C57.43914062 0.34769531 58.62822021 0.38008301 59.85333252 0.41345215 C60.88514648 0.43439941 61.91696045 0.45534668 62.9800415 0.47692871 C69.02566819 1.59959471 72.36499096 5.24026128 75.7694397 10.02401733 C83.87493319 21.40483107 93.87061019 33.85125192 108.24493408 36.50817871 C122.28876392 38.23781168 136.58569701 37.27248046 150.66241455 36.37390137 C158.61167538 35.88170056 166.47017833 36.05233211 174.41973877 36.39782715 C175.53163574 36.41885498 176.64353271 36.43988281 177.78912354 36.46154785 C185.77115045 36.68421554 192.06591451 38.16900289 197.91973877 44.02282715 C202.60039155 52.71546802 202.06871541 62.11386939 202.06500244 71.72180176 C202.06836105 72.97647751 202.07171967 74.23115326 202.07518005 75.52384949 C202.083021 78.94537716 202.08635573 82.36684414 202.08699584 85.78837657 C202.08770933 87.93060675 202.08984925 90.07283066 202.09249306 92.21505928 C202.10172656 99.70136033 202.10583029 107.18764364 202.1050415 114.6739502 C202.10444065 121.6324265 202.1149991 128.59082531 202.13078517 135.54928201 C202.14389167 141.54189476 202.14922413 147.53448225 202.14858609 153.52710921 C202.1483321 157.09820353 202.15112872 160.66922883 202.16176414 164.24030876 C202.17330942 168.22505559 202.16867929 172.20969722 202.16265869 176.19445801 C202.1682782 177.36512817 202.17389771 178.53579834 202.1796875 179.74194336 C202.14585706 188.57079475 201.9292154 197.06448579 195.91973877 204.02282715 C188.88040824 209.57306853 182.40382078 210.17444128 173.58334351 210.15653992 C172.34680411 210.15993825 172.34680411 210.15993825 171.08528411 210.16340524 C168.33103198 210.16972062 165.57682936 210.16891746 162.8225708 210.16809082 C160.84454281 210.17108383 158.86651541 210.17448668 156.88848877 210.17826843 C151.52070639 210.18709774 146.15293995 210.18944608 140.785151 210.19008422 C137.43050502 210.19079527 134.07586309 210.19293063 130.72121811 210.19558144 C119.01509087 210.20483096 107.30897501 210.20891677 95.60284424 210.20812988 C84.69540665 210.20752903 73.7880185 210.21808336 62.88059342 210.23387355 C53.51142047 210.24695299 44.14226367 210.25231362 34.77308166 210.25167447 C29.17929144 210.25141963 23.58554518 210.25426359 17.99176407 210.26485252 C12.73045892 210.27454039 7.46923971 210.27460792 2.20793152 210.26733589 C0.27944183 210.26629095 -1.64905323 210.26864759 -3.57753372 210.27469635 C-6.21508931 210.28243192 -8.8523493 210.27776114 -11.48989868 210.27006531 C-12.24847479 210.27520887 -13.00705089 210.28035243 -13.78861415 210.28565186 C-21.38302103 210.23686517 -28.04268881 208.96265913 -34.08026123 204.02282715 C-41.52262423 195.13333801 -40.3692302 183.53914645 -40.33905029 172.61437988 C-40.34176398 170.96102749 -40.34532702 169.30767631 -40.34967041 167.65432739 C-40.35875108 163.18542703 -40.35526824 158.71661951 -40.34891224 154.24771762 C-40.34383066 149.56028932 -40.3485496 144.87286869 -40.35168457 140.18544006 C-40.35531757 132.31652405 -40.35054222 124.44764565 -40.34100342 116.57873535 C-40.33011637 107.49292058 -40.33364895 98.40719555 -40.34465623 89.32138294 C-40.35374356 81.50627134 -40.35500742 73.69118669 -40.34977889 65.87607151 C-40.34666763 61.21459645 -40.34622669 56.55316353 -40.35285187 51.89169121 C-40.35864588 47.50938227 -40.3545909 43.12718865 -40.34306335 38.74489212 C-40.34042791 37.14052713 -40.34116271 35.53615236 -40.34558868 33.93179131 C-40.39428799 14.47971046 -40.39428799 14.47971046 -35.89276123 8.27282715 C-35.3455542 7.47618652 -35.3455542 7.47618652 -34.78729248 6.66345215 C-29.01046717 1.11135459 -23.64819701 0.38712745 -15.95526123 0.27282715 C-14.9324707 0.24462891 -13.90968018 0.21643066 -12.855896 0.18737793 C-8.5708016 0.08658164 -4.28594416 0.04703058 0 0 Z " fill="#FEFEFE" transform="translate(47.08026123046875,22.9771728515625)"/>
<path d="M0 0 C7.52192238 5.4076523 10.53152052 13.15906385 13.98046875 21.49609375 C14.5245882 22.79039815 15.06978461 24.08425025 15.6159668 25.37768555 C16.49812528 27.46832158 17.37873221 29.55953261 18.25422668 31.65296936 C20.3228657 36.59237271 22.44731595 41.50474372 24.60322571 46.40666199 C26.18420266 50.00332321 27.75179679 53.6057456 29.31820679 57.20877075 C30.08839807 58.97300121 30.86375259 60.73498725 31.6444397 62.49459839 C32.74727134 64.98473078 33.82878886 67.48318027 34.90625 69.984375 C35.23685425 70.71772064 35.5674585 71.45106628 35.90808105 72.20663452 C38.57961169 78.50295222 39.26663297 84.32363799 37.04296875 90.87109375 C34.65133752 94.29909852 32.98775077 95.78512353 29.16796875 97.55859375 C24.64033616 98.35075873 20.39234858 98.52700246 16.11328125 96.6640625 C10.18503706 92.30350955 7.84197963 85.15761475 5.16796875 78.55859375 C4.80960937 77.6975 4.45125 76.83640625 4.08203125 75.94921875 C2.64536121 72.4322505 1.29176404 68.88738768 -0.046875 65.33203125 C-2.35766984 59.22141875 -4.77032089 53.32874021 -7.83203125 47.55859375 C-8.83203125 45.55859375 -9.83203125 43.55859375 -10.83203125 41.55859375 C-14.16616571 42.28639648 -14.16616571 42.28639648 -15.55078125 45.8046875 C-16.15720867 47.19636714 -16.75026987 48.59392396 -17.33203125 49.99609375 C-17.63955322 50.71732422 -17.9470752 51.43855469 -18.26391602 52.18164062 C-20.51323809 57.54979078 -22.33668492 62.92905461 -23.83203125 68.55859375 C-20.53203125 68.55859375 -17.23203125 68.55859375 -13.83203125 68.55859375 C-13.83203125 69.21859375 -13.83203125 69.87859375 -13.83203125 70.55859375 C-13.13078125 70.57921875 -12.42953125 70.59984375 -11.70703125 70.62109375 C-7.38374588 72.03086072 -5.0312876 74.61459403 -2.83203125 78.55859375 C-1.91618268 82.88671685 -2.29170203 86.342853 -4.08203125 90.37109375 C-8.74112216 96.19495739 -8.74112216 96.19495739 -12.83203125 97.55859375 C-15.63848006 97.67971166 -18.41929896 97.74674753 -21.2265625 97.76171875 C-22.05153732 97.76741882 -22.87651215 97.7731189 -23.72648621 97.7789917 C-25.47234823 97.78843498 -27.21822802 97.79497301 -28.96411133 97.79882812 C-31.62418043 97.80851961 -34.28347203 97.83954287 -36.94335938 97.87109375 C-38.64192251 97.87762564 -40.34049115 97.88287538 -42.0390625 97.88671875 C-43.22529961 97.90523895 -43.22529961 97.90523895 -44.4355011 97.9241333 C-50.47217798 97.89999874 -54.63891789 96.63316044 -59.14453125 92.37109375 C-61.80678685 87.93400109 -62.41272191 83.92995067 -61.19311523 78.94946289 C-60.18256819 75.98527805 -59.06637719 73.08778415 -57.89453125 70.18359375 C-57.48211182 69.12430664 -57.06969238 68.06501953 -56.64477539 66.97363281 C-53.87959899 59.94965012 -50.923122 53.02084269 -47.78564453 46.15576172 C-45.25630607 40.60927485 -42.99001088 34.98493547 -40.76953125 29.30859375 C-30.39459267 3.10431927 -30.39459267 3.10431927 -20.44921875 -1.55859375 C-13.50747859 -3.90013595 -6.59403371 -2.86974388 0 0 Z " fill="#BB7979" transform="translate(139.83203125,91.44140625)"/>
<path d="M0 0 C10.86290584 -0.11616109 21.7229331 -0.10652707 32.58587646 0 C34.13396067 0.01514157 35.68205724 0.02907005 37.23016357 0.04174805 C41.59920328 0.07843517 45.96681066 0.13751649 50.33499146 0.23236084 C52.30648049 0.27181145 54.27829472 0.29379069 56.25006104 0.31530762 C57.43914062 0.34769531 58.62822021 0.38008301 59.85333252 0.41345215 C60.88514648 0.43439941 61.91696045 0.45534668 62.9800415 0.47692871 C69.77747286 1.73920398 74.37664496 7.18373071 79.06817627 11.90563965 C79.72556793 12.56111786 80.38295959 13.21659607 81.06027222 13.89193726 C82.43922589 15.26953666 83.81568412 16.64963804 85.1897583 18.03210449 C87.3019535 20.15507869 89.42469717 22.26708684 91.54864502 24.3782959 C92.88913113 25.72010239 94.22899737 27.0625285 95.56817627 28.40563965 C96.20556732 29.03898224 96.84295837 29.67232483 97.49966431 30.32485962 C101.91973877 34.79287432 101.91973877 34.79287432 101.91973877 37.02282715 C55.38973877 37.02282715 8.85973877 37.02282715 -39.08026123 37.02282715 C-40.66415848 25.93554643 -41.32880125 16.1867794 -34.78729248 6.66345215 C-29.01046717 1.11135459 -23.64819701 0.38712745 -15.95526123 0.27282715 C-14.9324707 0.24462891 -13.90968018 0.21643066 -12.855896 0.18737793 C-8.5708016 0.08658164 -4.28594416 0.04703058 0 0 Z " fill="#FB7318" transform="translate(47.08026123046875,22.9771728515625)"/>
<path d="M0 0 C0 12.21 0 24.42 0 37 C-16.83 37 -33.66 37 -51 37 C-52.58389725 25.91271928 -53.24854002 16.16395225 -46.70703125 6.640625 C-40.52648187 0.70050889 -34.66645711 0.36407502 -26.4375 0.25 C-25.44169922 0.22035156 -24.44589844 0.19070312 -23.41992188 0.16015625 C-15.61178203 -0.04992823 -7.81269173 0 0 0 Z " fill="#FE487B" transform="translate(59,23)"/>
<path d="M0 0 C3.67125 -0.020625 7.3425 -0.04125 11.125 -0.0625 C12.2711377 -0.071604 13.41727539 -0.08070801 14.59814453 -0.09008789 C15.97655518 -0.09383423 15.97655518 -0.09383423 17.3828125 -0.09765625 C18.31496582 -0.10289307 19.24711914 -0.10812988 20.20751953 -0.11352539 C23 0 23 0 29 1 C28.67 12.88 28.34 24.76 28 37 C18.76 37 9.52 37 0 37 C0 24.79 0 12.58 0 0 Z " fill="#FC3B13" transform="translate(59,23)"/>
<path d="M0 0 C0 11.88 0 23.76 0 36 C-6.6 36 -13.2 36 -20 36 C-21.42494605 26.02537768 -22.51344835 16.08271932 -16.8125 7.25 C-12.08804483 1.19549293 -7.81720835 0 0 0 Z " fill="#A57ED8" transform="translate(28,24)"/>
<path d="M0 0 C3.17461689 1.58730845 4.66521881 2.41411379 7.02441406 4.765625 C7.58469299 5.31959961 8.14497192 5.87357422 8.722229 6.44433594 C9.31404968 7.04020508 9.90587036 7.63607422 10.515625 8.25 C11.13145447 8.86391602 11.74728394 9.47783203 12.3817749 10.11035156 C13.67852646 11.40574483 14.97276657 12.70365644 16.26464844 14.00390625 C18.24975202 15.99975068 20.24533591 17.98466726 22.2421875 19.96875 C23.50064211 21.22852555 24.75847654 22.48892101 26.015625 23.75 C26.6155426 24.34586914 27.21546021 24.94173828 27.83355713 25.55566406 C32 29.77006753 32 29.77006753 32 32 C21.44 32 10.88 32 0 32 C0 21.44 0 10.88 0 0 Z " fill="#CBCB31" transform="translate(117,28)"/>
<path d="M0 0 C10 0 10 0 15 3 C14.67 13.89 14.34 24.78 14 36 C9.38 36 4.76 36 0 36 C0 24.12 0 12.24 0 0 Z " fill="#F7B11F" transform="translate(103,24)"/>
<path d="M0 0 C4.29 0 8.58 0 13 0 C12.67 11.88 12.34 23.76 12 36 C8.04 36 4.08 36 0 36 C0 24.12 0 12.24 0 0 Z " fill="#E562C0" transform="translate(28,24)"/>
<path d="M0 0 C3.63 0 7.26 0 11 0 C10.67 12.21 10.34 24.42 10 37 C6.7 37 3.4 37 0 37 C0 24.79 0 12.58 0 0 Z " fill="#FE3C49" transform="translate(59,23)"/>
<path d="M0 0 C0 12.21 0 24.42 0 37 C-2.64 37 -5.28 37 -8 37 C-8 25.45 -8 13.9 -8 2 C-3 0 -3 0 0 0 Z " fill="#FB57B2" transform="translate(48,23)"/>
<path d="M0 0 C0.66 0 1.32 0 2 0 C2 10.56 2 21.12 2 32 C-0.64 32 -3.28 32 -6 32 C-7.73480898 22.02484834 -8.40469151 11.69156656 -2.5 3 C-1.675 2.01 -0.85 1.02 0 0 Z " fill="#639AF0" transform="translate(14,28)"/>
<path d="M0 0 C3.4919213 1.74596065 5.21602248 2.95968891 7.890625 5.625 C8.59960938 6.33140625 9.30859375 7.0378125 10.0390625 7.765625 C10.76867187 8.50296875 11.49828125 9.2403125 12.25 10 C12.99507812 10.73734375 13.74015625 11.4746875 14.5078125 12.234375 C15.21164063 12.94078125 15.91546875 13.6471875 16.640625 14.375 C17.28547852 15.02210937 17.93033203 15.66921875 18.59472656 16.3359375 C20 18 20 18 20 20 C13.4 20 6.8 20 0 20 C0 13.4 0 6.8 0 0 Z " fill="#A3D23F" transform="translate(129,40)"/>
<path d="M0 0 C1.98 0 3.96 0 6 0 C5.67 12.21 5.34 24.42 5 37 C3.02 37 1.04 37 -1 37 C-1.0246501 31.89136104 -1.04283607 26.78275641 -1.05493164 21.67407227 C-1.05997204 19.93480832 -1.0668043 18.19554864 -1.07543945 16.45629883 C-1.08751792 13.96174063 -1.09323108 11.46723827 -1.09765625 8.97265625 C-1.10281754 8.19036148 -1.10797882 7.40806671 -1.11329651 6.60206604 C-1.11349226 4.73432886 -1.06199694 2.86670796 -1 1 C-0.67 0.67 -0.34 0.34 0 0 Z " fill="#FD352F" transform="translate(70,23)"/>
<path d="M0 0 C1.98 0 3.96 0 6 0 C6 11.88 6 23.76 6 36 C4.02 36 2.04 36 0 36 C0 24.12 0 12.24 0 0 Z " fill="#C570CC" transform="translate(28,24)"/>
<path d="M0 0 C0 11.88 0 23.76 0 36 C-1.98 36 -3.96 36 -6 36 C-6.12379245 31.51604697 -6.21442571 27.03300398 -6.2746582 22.54785156 C-6.29977103 21.0229357 -6.33386883 19.49813985 -6.37719727 17.97363281 C-6.43800044 15.77899574 -6.46623887 13.5859519 -6.48828125 11.390625 C-6.51446533 10.07094727 -6.54064941 8.75126953 -6.56762695 7.39160156 C-6 4 -6 4 -3.53198242 1.53808594 C-1 0 -1 0 0 0 Z " fill="#858BE3" transform="translate(22,24)"/>
<path d="M0 0 C1.65 0 3.3 0 5 0 C5 12.21 5 24.42 5 37 C3.35 37 1.7 37 0 37 C0 24.79 0 12.58 0 0 Z " fill="#FE4261" transform="translate(59,23)"/>
<path d="M0 0 C1.65 0 3.3 0 5 0 C5 12.21 5 24.42 5 37 C3.35 37 1.7 37 0 37 C0 24.79 0 12.58 0 0 Z " fill="#FE4F95" transform="translate(48,23)"/>
<path d="M0 0 C4 2 4 2 5 4 C5.01636685 6.10709392 4.96426144 8.21488448 4.87890625 10.3203125 C4.83056641 11.57714844 4.78222656 12.83398438 4.73242188 14.12890625 C4.67634766 15.44761719 4.62027344 16.76632813 4.5625 18.125 C4.50927587 19.46482438 4.45653549 20.80466808 4.40429688 22.14453125 C4.27429992 25.42990887 4.13932314 28.71500678 4 32 C2.68 32 1.36 32 0 32 C0 21.44 0 10.88 0 0 Z " fill="#DFC82A" transform="translate(117,28)"/>
<path d="M0 0 C0.33 0 0.66 0 1 0 C1 9.24 1 18.48 1 28 C-0.32 28 -1.64 28 -3 28 C-4.63396542 18.60469882 -5.51490515 8.27235773 0 0 Z " fill="#4DA3F8" transform="translate(11,32)"/>
<path d="M0 0 C0.99 0 1.98 0 3 0 C3 11.88 3 23.76 3 36 C2.01 36 1.02 36 0 36 C0 24.12 0 12.24 0 0 Z " fill="#D569C7" transform="translate(34,24)"/>
<path d="M0 0 C0.99 0 1.98 0 3 0 C3 11.88 3 23.76 3 36 C2.01 36 1.02 36 0 36 C0 24.12 0 12.24 0 0 Z " fill="#B577D2" transform="translate(28,24)"/>
<path d="M0 0 C0.99 0 1.98 0 3 0 C3 11.88 3 23.76 3 36 C2.01 36 1.02 36 0 36 C0 24.12 0 12.24 0 0 Z " fill="#9684DE" transform="translate(22,24)"/>
<path d="M0 0 C0.33 0 0.66 0 1 0 C1 11.22 1 22.44 1 34 C0.01 34 -0.98 34 -2 34 C-2.049377 29.47934572 -2.08570823 24.95884783 -2.10986328 20.43798828 C-2.11993118 18.89954902 -2.13358646 17.36112893 -2.15087891 15.82275391 C-2.17509317 13.61355867 -2.18647491 11.40461605 -2.1953125 9.1953125 C-2.20563507 8.50567413 -2.21595764 7.81603577 -2.22659302 7.10549927 C-2.22699478 5.40199094 -2.12191026 3.69914057 -2 2 C-1.34 1.34 -0.68 0.68 0 0 Z " fill="#7692E9" transform="translate(18,26)"/>
<path d="M0 0 C4 2 4 2 5 4 C5.01605041 5.52388763 4.9655743 7.04880674 4.87890625 8.5703125 C4.83056641 9.46621094 4.78222656 10.36210938 4.73242188 11.28515625 C4.67634766 12.22230469 4.62027344 13.15945312 4.5625 14.125 C4.51029297 15.06988281 4.45808594 16.01476562 4.40429688 16.98828125 C4.27443239 19.3258419 4.1394613 21.66299545 4 24 C2.68 24 1.36 24 0 24 C0 16.08 0 8.16 0 0 Z " fill="#B7CF38" transform="translate(125,36)"/>
<path d="M0 0 C3.60772477 1.80386238 5.47634052 3.2057949 8.25 6 C8.95640625 6.70125 9.6628125 7.4025 10.390625 8.125 C12 10 12 10 12 12 C8.04 12 4.08 12 0 12 C0 8.04 0 4.08 0 0 Z " fill="#7EDB57" transform="translate(137,48)"/>
<path d="M0 0 C5 5 5 5 5.26953125 8.11328125 C5.11871094 9.16902344 4.96789062 10.22476563 4.8125 11.3125 C4.67457031 12.38113281 4.53664062 13.44976562 4.39453125 14.55078125 C4.26433594 15.35902344 4.13414062 16.16726562 4 17 C2.68 17 1.36 17 0 17 C0 11.39 0 5.78 0 0 Z " fill="#8FD547" transform="translate(133,43)"/>
<path d="M0 0 C0.99 0.33 1.98 0.66 3 1 C2.71788123 2.6266848 2.42397625 4.25132896 2.125 5.875 C1.96257812 6.77992188 1.80015625 7.68484375 1.6328125 8.6171875 C1 11 1 11 -1 13 C-1.99 12.67 -2.98 12.34 -4 12 C-3.814375 11.4225 -3.62875 10.845 -3.4375 10.25 C-2.95976454 7.79307475 -3.24270636 6.35602466 -4 4 C-3.01 3.67 -2.02 3.34 -1 3 C-0.67 2.01 -0.34 1.02 0 0 Z " fill="#8675E7" transform="translate(115,149)"/>
<path d="M0 0 C-0.375 1.9375 -0.375 1.9375 -1 4 C-3.64458379 5.32229189 -5.67761301 5.09677194 -8.625 5.0625 C-9.62789062 5.05347656 -10.63078125 5.04445312 -11.6640625 5.03515625 C-12.43492187 5.02355469 -13.20578125 5.01195312 -14 5 C-14 4.34 -14 3.68 -14 3 C-13.484375 2.896875 -12.96875 2.79375 -12.4375 2.6875 C-9.75593774 1.99801816 -9.75593774 1.99801816 -6.4375 0.375 C-3 -1 -3 -1 0 0 Z " fill="#56DF50" transform="translate(172,184)"/>
<path d="M0 0 C4.2742558 1.5830577 6.26531794 4.50568404 9 8 C6.03 8 3.06 8 0 8 C0 5.36 0 2.72 0 0 Z " fill="#65DC55" transform="translate(140,51)"/>
<path d="M0 0 C0.90492187 0.02320313 1.80984375 0.04640625 2.7421875 0.0703125 C4.10730469 0.09738281 4.10730469 0.09738281 5.5 0.125 C6.19867188 0.14820313 6.89734375 0.17140625 7.6171875 0.1953125 C4.01990628 3.17237282 2.24325069 3.1953125 -2.3828125 3.1953125 C-3.0428125 2.8653125 -3.7028125 2.5353125 -4.3828125 2.1953125 C-2.3828125 0.1953125 -2.3828125 0.1953125 0 0 Z " fill="#6A92F3" transform="translate(118.3828125,159.8046875)"/>
<path d="M0 0 C0.99 0.33 1.98 0.66 3 1 C2.67 2.65 2.34 4.3 2 6 C-0.97 5.505 -0.97 5.505 -4 5 C-3.67 4.34 -3.34 3.68 -3 3 C-2.34 3 -1.68 3 -1 3 C-0.67 2.01 -0.34 1.02 0 0 Z " fill="#AB6CD9" transform="translate(115,149)"/>
</svg>
