<?xml version="1.0" encoding="UTF-8"?>
<svg version="1.1" xmlns="http://www.w3.org/2000/svg" width="256" height="256">
<path d="M0 0 C10.86290584 -0.11616109 21.7229331 -0.10652707 32.58587646 0 C34.13396067 0.01514157 35.68205724 0.02907005 37.23016357 0.04174805 C41.59920328 0.07843517 45.96681066 0.13751649 50.33499146 0.23236084 C52.30648049 0.27181145 54.27829472 0.29379069 56.25006104 0.31530762 C57.43914062 0.34769531 58.62822021 0.38008301 59.85333252 0.41345215 C60.88514648 0.43439941 61.91696045 0.45534668 62.9800415 0.47692871 C69.02566819 1.59959471 72.36499096 5.24026128 75.7694397 10.02401733 C83.87493319 21.40483107 93.87061019 33.85125192 108.24493408 36.50817871 C122.28876392 38.23781168 136.58569701 37.27248046 150.66241455 36.37390137 C158.61167538 35.88170056 166.47017833 36.05233211 174.41973877 36.39782715 C175.53163574 36.41885498 176.64353271 36.43988281 177.78912354 36.46154785 C185.77115045 36.68421554 192.06591451 38.16900289 197.91973877 44.02282715 C202.60039155 52.71546802 202.06871541 62.11386939 202.06500244 71.72180176 C202.06836105 72.97647751 202.07171967 74.23115326 202.07518005 75.52384949 C202.083021 78.94537716 202.08635573 82.36684414 202.08699584 85.78837657 C202.08770933 87.93060675 202.08984925 90.07283066 202.09249306 92.21505928 C202.10172656 99.70136033 202.10583029 107.18764364 202.1050415 114.6739502 C202.10444065 121.6324265 202.1149991 128.59082531 202.13078517 135.54928201 C202.14389167 141.54189476 202.14922413 147.53448225 202.14858609 153.52710921 C202.1483321 157.09820353 202.15112872 160.66922883 202.16176414 164.24030876 C202.17330942 168.22505559 202.16867929 172.20969722 202.16265869 176.19445801 C202.1682782 177.36512817 202.17389771 178.53579834 202.1796875 179.74194336 C202.14585706 188.57079475 201.9292154 197.06448579 195.91973877 204.02282715 C188.88040824 209.57306853 182.40382078 210.17444128 173.58334351 210.15653992 C172.34680411 210.15993825 172.34680411 210.15993825 171.08528411 210.16340524 C168.33103198 210.16972062 165.57682936 210.16891746 162.8225708 210.16809082 C160.84454281 210.17108383 158.86651541 210.17448668 156.88848877 210.17826843 C151.52070639 210.18709774 146.15293995 210.18944608 140.785151 210.19008422 C137.43050502 210.19079527 134.07586309 210.19293063 130.72121811 210.19558144 C119.01509087 210.20483096 107.30897501 210.20891677 95.60284424 210.20812988 C84.69540665 210.20752903 73.7880185 210.21808336 62.88059342 210.23387355 C53.51142047 210.24695299 44.14226367 210.25231362 34.77308166 210.25167447 C29.17929144 210.25141963 23.58554518 210.25426359 17.99176407 210.26485252 C12.73045892 210.27454039 7.46923971 210.27460792 2.20793152 210.26733589 C0.27944183 210.26629095 -1.64905323 210.26864759 -3.57753372 210.27469635 C-6.21508931 210.28243192 -8.8523493 210.27776114 -11.48989868 210.27006531 C-12.24847479 210.27520887 -13.00705089 210.28035243 -13.78861415 210.28565186 C-21.38302103 210.23686517 -28.04268881 208.96265913 -34.08026123 204.02282715 C-41.52262423 195.13333801 -40.3692302 183.53914645 -40.33905029 172.61437988 C-40.34176398 170.96102749 -40.34532702 169.30767631 -40.34967041 167.65432739 C-40.35875108 163.18542703 -40.35526824 158.71661951 -40.34891224 154.24771762 C-40.34383066 149.56028932 -40.3485496 144.87286869 -40.35168457 140.18544006 C-40.35531757 132.31652405 -40.35054222 124.44764565 -40.34100342 116.57873535 C-40.33011637 107.49292058 -40.33364895 98.40719555 -40.34465623 89.32138294 C-40.35374356 81.50627134 -40.35500742 73.69118669 -40.34977889 65.87607151 C-40.34666763 61.21459645 -40.34622669 56.55316353 -40.35285187 51.89169121 C-40.35864588 47.50938227 -40.3545909 43.12718865 -40.34306335 38.74489212 C-40.34042791 37.14052713 -40.34116271 35.53615236 -40.34558868 33.93179131 C-40.39428799 14.47971046 -40.39428799 14.47971046 -35.89276123 8.27282715 C-35.3455542 7.47618652 -35.3455542 7.47618652 -34.78729248 6.66345215 C-29.01046717 1.11135459 -23.64819701 0.38712745 -15.95526123 0.27282715 C-14.9324707 0.24462891 -13.90968018 0.21643066 -12.855896 0.18737793 C-8.5708016 0.08658164 -4.28594416 0.04703058 0 0 Z " fill="#000B1D" transform="translate(47.08026123046875,22.9771728515625)"/>
<path d="M0 0 C10.86290584 -0.11616109 21.7229331 -0.10652707 32.58587646 0 C34.13396067 0.01514157 35.68205724 0.02907005 37.23016357 0.04174805 C41.59920328 0.07843517 45.96681066 0.13751649 50.33499146 0.23236084 C52.30648049 0.27181145 54.27829472 0.29379069 56.25006104 0.31530762 C57.43914062 0.34769531 58.62822021 0.38008301 59.85333252 0.41345215 C60.88514648 0.43439941 61.91696045 0.45534668 62.9800415 0.47692871 C69.77747286 1.73920398 74.37664496 7.18373071 79.06817627 11.90563965 C79.72556793 12.56111786 80.38295959 13.21659607 81.06027222 13.89193726 C82.43922589 15.26953666 83.81568412 16.64963804 85.1897583 18.03210449 C87.3019535 20.15507869 89.42469717 22.26708684 91.54864502 24.3782959 C92.88913113 25.72010239 94.22899737 27.0625285 95.56817627 28.40563965 C96.20556732 29.03898224 96.84295837 29.67232483 97.49966431 30.32485962 C101.91973877 34.79287432 101.91973877 34.79287432 101.91973877 37.02282715 C55.38973877 37.02282715 8.85973877 37.02282715 -39.08026123 37.02282715 C-40.66415848 25.93554643 -41.32880125 16.1867794 -34.78729248 6.66345215 C-29.01046717 1.11135459 -23.64819701 0.38712745 -15.95526123 0.27282715 C-14.9324707 0.24462891 -13.90968018 0.21643066 -12.855896 0.18737793 C-8.5708016 0.08658164 -4.28594416 0.04703058 0 0 Z " fill="#7A7A7A" transform="translate(47.08026123046875,22.9771728515625)"/>
<path d="M0 0 C40.9221902 0 40.9221902 0 50 7 C55.21218513 12.48651066 56.49847749 17.73766569 56.3984375 25.140625 C55.85232839 29.05976097 54.31623126 31.83182392 52.19140625 35.125 C50.83442513 37.09358894 50.83442513 37.09358894 50 40 C50.928125 40.721875 51.85625 41.44375 52.8125 42.1875 C55.69849578 44.43216339 57.41852295 46.688201 59 50 C59.8765714 57.05205637 60.23520507 65.11658363 56.39453125 71.359375 C50.17412114 78.67750454 42.33964908 81.66576442 33 83 C22.11 83 11.22 83 0 83 C0 55.61 0 28.22 0 0 Z " fill="#79797A" transform="translate(82,93)"/>
<path d="M0 0 C0 4.95 0 9.9 0 15 C-4.34570312 15.5859375 -4.34570312 15.5859375 -8.69140625 16.171875 C-12.60532239 17.15150926 -16.05642984 18.18091386 -19 21 C-20.03999042 24.10572415 -19.95525254 27.10740011 -19.90234375 30.359375 C-19.92078087 31.71594208 -19.92078087 31.71594208 -19.93959045 33.09991455 C-19.97134521 35.98409966 -19.95503718 38.86573447 -19.9375 41.75 C-19.95060745 43.70705504 -19.96684651 45.66409179 -19.98632812 47.62109375 C-20.02720462 52.41460742 -20.02498646 57.20639538 -20 62 C-24.95 62 -29.9 62 -35 62 C-35.33 41.87 -35.66 21.74 -36 1 C-31.38 1 -26.76 1 -22 1 C-21.34 3.31 -20.68 5.62 -20 8 C-19.48050781 7.59007813 -18.96101563 7.18015625 -18.42578125 6.7578125 C-11.82944162 1.66119519 -8.67700575 0 0 0 Z " fill="#7A7A7A" transform="translate(189,114)"/>
<path d="M0 0 C3.01125 -0.061875 6.0225 -0.12375 9.125 -0.1875 C10.06230957 -0.21481201 10.99961914 -0.24212402 11.96533203 -0.27026367 C18.36018968 -0.33359932 22.59507262 0.72164774 27.375 5.25 C29.48857708 8.82682275 29.58503686 10.90474201 29 15 C26.43701899 19.33735247 23.63392498 21.16834722 19 23 C15.6945833 23.34812595 12.44374115 23.28420391 9.125 23.1875 C6.11375 23.125625 3.1025 23.06375 0 23 C0 15.41 0 7.82 0 0 Z " fill="#010C1E" transform="translate(97,140)"/>
<path d="M0 0 C18.69148936 -0.50066489 18.69148936 -0.50066489 25 4.625 C26.55666834 8.32208732 26.84072988 12.07438726 26 16 C24.67578125 18.765625 24.67578125 18.765625 22 21 C18.23447097 21.6217564 14.5531524 21.4693559 10.75 21.3125 C9.71875 21.28994141 8.6875 21.26738281 7.625 21.24414062 C5.08271187 21.18529136 2.54117107 21.09561262 0 21 C0 14.07 0 7.14 0 0 Z " fill="#010C1E" transform="translate(97,106)"/>
</svg>
