<?xml version="1.0" encoding="UTF-8"?>
<svg version="1.1" xmlns="http://www.w3.org/2000/svg" width="256" height="256">
<path d="M0 0 C10.86290584 -0.11616109 21.7229331 -0.10652707 32.58587646 0 C34.13396067 0.01514157 35.68205724 0.02907005 37.23016357 0.04174805 C41.59920328 0.07843517 45.96681066 0.13751649 50.33499146 0.23236084 C52.30648049 0.27181145 54.27829472 0.29379069 56.25006104 0.31530762 C57.43914062 0.34769531 58.62822021 0.38008301 59.85333252 0.41345215 C60.88514648 0.43439941 61.91696045 0.45534668 62.9800415 0.47692871 C69.02566819 1.59959471 72.36499096 5.24026128 75.7694397 10.02401733 C83.87493319 21.40483107 93.87061019 33.85125192 108.24493408 36.50817871 C122.28876392 38.23781168 136.58569701 37.27248046 150.66241455 36.37390137 C158.61167538 35.88170056 166.47017833 36.05233211 174.41973877 36.39782715 C175.53163574 36.41885498 176.64353271 36.43988281 177.78912354 36.46154785 C185.77115045 36.68421554 192.06591451 38.16900289 197.91973877 44.02282715 C202.60039155 52.71546802 202.06871541 62.11386939 202.06500244 71.72180176 C202.06836105 72.97647751 202.07171967 74.23115326 202.07518005 75.52384949 C202.083021 78.94537716 202.08635573 82.36684414 202.08699584 85.78837657 C202.08770933 87.93060675 202.08984925 90.07283066 202.09249306 92.21505928 C202.10172656 99.70136033 202.10583029 107.18764364 202.1050415 114.6739502 C202.10444065 121.6324265 202.1149991 128.59082531 202.13078517 135.54928201 C202.14389167 141.54189476 202.14922413 147.53448225 202.14858609 153.52710921 C202.1483321 157.09820353 202.15112872 160.66922883 202.16176414 164.24030876 C202.17330942 168.22505559 202.16867929 172.20969722 202.16265869 176.19445801 C202.1682782 177.36512817 202.17389771 178.53579834 202.1796875 179.74194336 C202.14585706 188.57079475 201.9292154 197.06448579 195.91973877 204.02282715 C188.88040824 209.57306853 182.40382078 210.17444128 173.58334351 210.15653992 C172.34680411 210.15993825 172.34680411 210.15993825 171.08528411 210.16340524 C168.33103198 210.16972062 165.57682936 210.16891746 162.8225708 210.16809082 C160.84454281 210.17108383 158.86651541 210.17448668 156.88848877 210.17826843 C151.52070639 210.18709774 146.15293995 210.18944608 140.785151 210.19008422 C137.43050502 210.19079527 134.07586309 210.19293063 130.72121811 210.19558144 C119.01509087 210.20483096 107.30897501 210.20891677 95.60284424 210.20812988 C84.69540665 210.20752903 73.7880185 210.21808336 62.88059342 210.23387355 C53.51142047 210.24695299 44.14226367 210.25231362 34.77308166 210.25167447 C29.17929144 210.25141963 23.58554518 210.25426359 17.99176407 210.26485252 C12.73045892 210.27454039 7.46923971 210.27460792 2.20793152 210.26733589 C0.27944183 210.26629095 -1.64905323 210.26864759 -3.57753372 210.27469635 C-6.21508931 210.28243192 -8.8523493 210.27776114 -11.48989868 210.27006531 C-12.24847479 210.27520887 -13.00705089 210.28035243 -13.78861415 210.28565186 C-21.38302103 210.23686517 -28.04268881 208.96265913 -34.08026123 204.02282715 C-41.52262423 195.13333801 -40.3692302 183.53914645 -40.33905029 172.61437988 C-40.34176398 170.96102749 -40.34532702 169.30767631 -40.34967041 167.65432739 C-40.35875108 163.18542703 -40.35526824 158.71661951 -40.34891224 154.24771762 C-40.34383066 149.56028932 -40.3485496 144.87286869 -40.35168457 140.18544006 C-40.35531757 132.31652405 -40.35054222 124.44764565 -40.34100342 116.57873535 C-40.33011637 107.49292058 -40.33364895 98.40719555 -40.34465623 89.32138294 C-40.35374356 81.50627134 -40.35500742 73.69118669 -40.34977889 65.87607151 C-40.34666763 61.21459645 -40.34622669 56.55316353 -40.35285187 51.89169121 C-40.35864588 47.50938227 -40.3545909 43.12718865 -40.34306335 38.74489212 C-40.34042791 37.14052713 -40.34116271 35.53615236 -40.34558868 33.93179131 C-40.39428799 14.47971046 -40.39428799 14.47971046 -35.89276123 8.27282715 C-35.3455542 7.47618652 -35.3455542 7.47618652 -34.78729248 6.66345215 C-29.01046717 1.11135459 -23.64819701 0.38712745 -15.95526123 0.27282715 C-14.9324707 0.24462891 -13.90968018 0.21643066 -12.855896 0.18737793 C-8.5708016 0.08658164 -4.28594416 0.04703058 0 0 Z " fill="#00005B" transform="translate(47.08026123046875,22.9771728515625)"/>
<path d="M0 0 C10.86290584 -0.11616109 21.7229331 -0.10652707 32.58587646 0 C34.13396067 0.01514157 35.68205724 0.02907005 37.23016357 0.04174805 C41.59920328 0.07843517 45.96681066 0.13751649 50.33499146 0.23236084 C52.30648049 0.27181145 54.27829472 0.29379069 56.25006104 0.31530762 C57.43914062 0.34769531 58.62822021 0.38008301 59.85333252 0.41345215 C60.88514648 0.43439941 61.91696045 0.45534668 62.9800415 0.47692871 C69.77747286 1.73920398 74.37664496 7.18373071 79.06817627 11.90563965 C79.72556793 12.56111786 80.38295959 13.21659607 81.06027222 13.89193726 C82.43922589 15.26953666 83.81568412 16.64963804 85.1897583 18.03210449 C87.3019535 20.15507869 89.42469717 22.26708684 91.54864502 24.3782959 C92.88913113 25.72010239 94.22899737 27.0625285 95.56817627 28.40563965 C96.20556732 29.03898224 96.84295837 29.67232483 97.49966431 30.32485962 C101.91973877 34.79287432 101.91973877 34.79287432 101.91973877 37.02282715 C55.38973877 37.02282715 8.85973877 37.02282715 -39.08026123 37.02282715 C-40.66415848 25.93554643 -41.32880125 16.1867794 -34.78729248 6.66345215 C-29.01046717 1.11135459 -23.64819701 0.38712745 -15.95526123 0.27282715 C-14.9324707 0.24462891 -13.90968018 0.21643066 -12.855896 0.18737793 C-8.5708016 0.08658164 -4.28594416 0.04703058 0 0 Z " fill="#9898FE" transform="translate(47.08026123046875,22.9771728515625)"/>
<path d="M0 0 C6.27 0 12.54 0 19 0 C22.57368512 7.66384688 25.40106995 15.52233755 28.1875 23.5 C28.91580153 25.57158785 29.64547869 27.64268783 30.37524414 29.71376038 C30.86734773 31.11053977 31.35904686 32.50746173 31.8503418 33.90452576 C34.15988692 40.46874757 36.51225077 47.01725062 38.875 53.5625 C39.24189941 54.58166504 39.60879883 55.60083008 39.98681641 56.65087891 C41.53667376 60.95477375 43.09146633 65.25656971 44.66796875 69.55078125 C44.90854004 70.21070068 45.14911133 70.87062012 45.39697266 71.55053711 C46.0021021 73.20942643 46.61210998 74.86653416 47.22265625 76.5234375 C48 79 48 79 48 82 C42.72 82 37.44 82 32 82 C30.82940422 78.87642044 29.66336789 75.75127047 28.5 72.625 C28.16613281 71.73554688 27.83226562 70.84609375 27.48828125 69.9296875 C27.17246094 69.07890625 26.85664062 68.228125 26.53125 67.3515625 C26.23798828 66.56604004 25.94472656 65.78051758 25.64257812 64.97119141 C25 63 25 63 25 61 C15.1 61.33 5.2 61.66 -5 62 C-7.31 68.6 -9.62 75.2 -12 82 C-16.95 82 -21.9 82 -27 82 C-25.55450076 74.30484227 -23.04995777 67.07943366 -20.4046936 59.72909546 C-19.61020529 57.5213888 -18.82226077 55.31143973 -18.03588867 53.10083008 C-16.92964182 49.99305776 -15.82077142 46.88624285 -14.70947266 43.78027344 C-12.16514165 36.66809681 -9.63236744 29.55185004 -7.10931396 22.43209839 C-6.32473395 20.22196264 -5.53580396 18.01341328 -4.74658203 15.80493164 C-4.26445092 14.44684745 -3.78250734 13.08869666 -3.30078125 11.73046875 C-2.66910034 9.95772583 -2.66910034 9.95772583 -2.0246582 8.14916992 C-0.84529946 4.73309288 -0.84529946 4.73309288 0 0 Z " fill="#9595FB" transform="translate(89,94)"/>
<path d="M0 0 C6.55299932 3.83802955 9.67359789 9.09024474 12.4375 16 C12.4375 21.61 12.4375 27.22 12.4375 33 C-0.4325 33 -13.3025 33 -26.5625 33 C-23.90828632 41.93516585 -23.90828632 41.93516585 -17.5625 47 C-9.55580894 49.77494591 0.52376194 48.53239618 8.4375 46 C8.4375 50.29 8.4375 54.58 8.4375 59 C1.88947829 61.48851228 -3.57868346 62.49659383 -10.5625 62.4375 C-11.40039062 62.45748047 -12.23828125 62.47746094 -13.1015625 62.49804688 C-20.81045758 62.49208024 -28.39411052 60.07525794 -34.14453125 54.6953125 C-40.13574763 47.53226041 -42.09816207 40.46781303 -42.125 31.3125 C-42.12741699 30.5292334 -42.12983398 29.7459668 -42.13232422 28.93896484 C-41.87090887 19.71584392 -39.0635291 11.65481689 -32.5625 5 C-23.13717393 -2.41136751 -11.36197283 -5.161384 0 0 Z " fill="#9696FC" transform="translate(183.5625,115)"/>
<path d="M0 0 C2.5498448 2.5498448 3.05760702 4.74748692 4.1640625 8.1796875 C4.56367187 9.41847656 4.96328125 10.65726563 5.375 11.93359375 C5.57996094 12.58054199 5.78492187 13.22749023 5.99609375 13.89404297 C6.62129762 15.86333808 7.25911754 17.82821736 7.8984375 19.79296875 C11 29.49038657 11 29.49038657 11 34 C4.07 34 -2.86 34 -10 34 C-7.91604882 26.22205299 -5.67733217 18.50931286 -3.3125 10.8125 C-2.99216797 9.76513672 -2.67183594 8.71777344 -2.34179688 7.63867188 C-1.56267541 5.09199125 -0.78205799 2.54578006 0 0 Z " fill="#070762" transform="translate(98,107)"/>
<path d="M0 0 C3.19162198 1.6549151 5.29278786 3.0034738 7.375 5.9375 C8 8 8 8 8 13 C-0.25 13 -8.5 13 -17 13 C-15.95763751 6.74582506 -15.51143164 5.86694141 -11 2 C-7.29137017 -0.47241989 -4.30094385 -0.66668695 0 0 Z " fill="#070763" transform="translate(174,125)"/>
</svg>
