<?xml version="1.0" encoding="UTF-8"?>
<svg version="1.1" xmlns="http://www.w3.org/2000/svg" width="256" height="256">
<path d="M0 0 C10.86290584 -0.11616109 21.7229331 -0.10652707 32.58587646 0 C34.13396067 0.01514157 35.68205724 0.02907005 37.23016357 0.04174805 C41.59920328 0.07843517 45.96681066 0.13751649 50.33499146 0.23236084 C52.30648049 0.27181145 54.27829472 0.29379069 56.25006104 0.31530762 C57.43914062 0.34769531 58.62822021 0.38008301 59.85333252 0.41345215 C60.88514648 0.43439941 61.91696045 0.45534668 62.9800415 0.47692871 C69.02566819 1.59959471 72.36499096 5.24026128 75.7694397 10.02401733 C83.87493319 21.40483107 93.87061019 33.85125192 108.24493408 36.50817871 C122.28876392 38.23781168 136.58569701 37.27248046 150.66241455 36.37390137 C158.61167538 35.88170056 166.47017833 36.05233211 174.41973877 36.39782715 C175.53163574 36.41885498 176.64353271 36.43988281 177.78912354 36.46154785 C185.77115045 36.68421554 192.06591451 38.16900289 197.91973877 44.02282715 C202.60039155 52.71546802 202.06871541 62.11386939 202.06500244 71.72180176 C202.06836105 72.97647751 202.07171967 74.23115326 202.07518005 75.52384949 C202.083021 78.94537716 202.08635573 82.36684414 202.08699584 85.78837657 C202.08770933 87.93060675 202.08984925 90.07283066 202.09249306 92.21505928 C202.10172656 99.70136033 202.10583029 107.18764364 202.1050415 114.6739502 C202.10444065 121.6324265 202.1149991 128.59082531 202.13078517 135.54928201 C202.14389167 141.54189476 202.14922413 147.53448225 202.14858609 153.52710921 C202.1483321 157.09820353 202.15112872 160.66922883 202.16176414 164.24030876 C202.17330942 168.22505559 202.16867929 172.20969722 202.16265869 176.19445801 C202.1682782 177.36512817 202.17389771 178.53579834 202.1796875 179.74194336 C202.14585706 188.57079475 201.9292154 197.06448579 195.91973877 204.02282715 C188.88040824 209.57306853 182.40382078 210.17444128 173.58334351 210.15653992 C172.34680411 210.15993825 172.34680411 210.15993825 171.08528411 210.16340524 C168.33103198 210.16972062 165.57682936 210.16891746 162.8225708 210.16809082 C160.84454281 210.17108383 158.86651541 210.17448668 156.88848877 210.17826843 C151.52070639 210.18709774 146.15293995 210.18944608 140.785151 210.19008422 C137.43050502 210.19079527 134.07586309 210.19293063 130.72121811 210.19558144 C119.01509087 210.20483096 107.30897501 210.20891677 95.60284424 210.20812988 C84.69540665 210.20752903 73.7880185 210.21808336 62.88059342 210.23387355 C53.51142047 210.24695299 44.14226367 210.25231362 34.77308166 210.25167447 C29.17929144 210.25141963 23.58554518 210.25426359 17.99176407 210.26485252 C12.73045892 210.27454039 7.46923971 210.27460792 2.20793152 210.26733589 C0.27944183 210.26629095 -1.64905323 210.26864759 -3.57753372 210.27469635 C-6.21508931 210.28243192 -8.8523493 210.27776114 -11.48989868 210.27006531 C-12.24847479 210.27520887 -13.00705089 210.28035243 -13.78861415 210.28565186 C-21.38302103 210.23686517 -28.04268881 208.96265913 -34.08026123 204.02282715 C-41.52262423 195.13333801 -40.3692302 183.53914645 -40.33905029 172.61437988 C-40.34176398 170.96102749 -40.34532702 169.30767631 -40.34967041 167.65432739 C-40.35875108 163.18542703 -40.35526824 158.71661951 -40.34891224 154.24771762 C-40.34383066 149.56028932 -40.3485496 144.87286869 -40.35168457 140.18544006 C-40.35531757 132.31652405 -40.35054222 124.44764565 -40.34100342 116.57873535 C-40.33011637 107.49292058 -40.33364895 98.40719555 -40.34465623 89.32138294 C-40.35374356 81.50627134 -40.35500742 73.69118669 -40.34977889 65.87607151 C-40.34666763 61.21459645 -40.34622669 56.55316353 -40.35285187 51.89169121 C-40.35864588 47.50938227 -40.3545909 43.12718865 -40.34306335 38.74489212 C-40.34042791 37.14052713 -40.34116271 35.53615236 -40.34558868 33.93179131 C-40.39428799 14.47971046 -40.39428799 14.47971046 -35.89276123 8.27282715 C-35.3455542 7.47618652 -35.3455542 7.47618652 -34.78729248 6.66345215 C-29.01046717 1.11135459 -23.64819701 0.38712745 -15.95526123 0.27282715 C-14.9324707 0.24462891 -13.90968018 0.21643066 -12.855896 0.18737793 C-8.5708016 0.08658164 -4.28594416 0.04703058 0 0 Z " fill="#013301" transform="translate(47.08026123046875,22.9771728515625)"/>
<path d="M0 0 C2.26080936 -0.0095797 4.52065929 -0.04052411 6.78125 -0.07226562 C20.73026701 -0.1751773 34.15982432 2.09842326 44.7421875 11.92773438 C52.44725872 20.25543761 55.44005137 30.07350536 55.42578125 41.31835938 C54.64223824 54.32183918 50.74129474 64.41595304 41.2421875 73.49023438 C32.5863192 80.82795014 23.4295559 83.41564313 12.28515625 83.33789062 C11.51536942 83.33647568 10.74558258 83.33506073 9.95246887 83.33360291 C7.50733462 83.32803044 5.06229382 83.31548308 2.6171875 83.30273438 C0.95377737 83.29771581 -0.7096342 83.29315353 -2.37304688 83.2890625 C-6.43883778 83.27807003 -10.50455933 83.26082448 -14.5703125 83.24023438 C-14.59343578 72.56603739 -14.61122751 61.89184632 -14.62212467 51.21762943 C-14.62735353 46.26169516 -14.63445124 41.30577796 -14.64575195 36.34985352 C-14.65658072 31.57124602 -14.66258931 26.79265499 -14.66518974 22.01403618 C-14.66704401 20.18669818 -14.67066466 18.35936113 -14.67604256 16.53203011 C-14.68325286 13.98170109 -14.68430345 11.43144101 -14.68383789 8.88110352 C-14.68743317 8.11793823 -14.69102844 7.35477295 -14.69473267 6.56848145 C-14.67616884 -2.76749054 -7.63435212 0.01954186 0 0 Z " fill="#31F963" transform="translate(78.5703125,92.759765625)"/>
<path d="M0 0 C10.86290584 -0.11616109 21.7229331 -0.10652707 32.58587646 0 C34.13396067 0.01514157 35.68205724 0.02907005 37.23016357 0.04174805 C41.59920328 0.07843517 45.96681066 0.13751649 50.33499146 0.23236084 C52.30648049 0.27181145 54.27829472 0.29379069 56.25006104 0.31530762 C57.43914062 0.34769531 58.62822021 0.38008301 59.85333252 0.41345215 C60.88514648 0.43439941 61.91696045 0.45534668 62.9800415 0.47692871 C69.77747286 1.73920398 74.37664496 7.18373071 79.06817627 11.90563965 C79.72556793 12.56111786 80.38295959 13.21659607 81.06027222 13.89193726 C82.43922589 15.26953666 83.81568412 16.64963804 85.1897583 18.03210449 C87.3019535 20.15507869 89.42469717 22.26708684 91.54864502 24.3782959 C92.88913113 25.72010239 94.22899737 27.0625285 95.56817627 28.40563965 C96.20556732 29.03898224 96.84295837 29.67232483 97.49966431 30.32485962 C101.91973877 34.79287432 101.91973877 34.79287432 101.91973877 37.02282715 C55.38973877 37.02282715 8.85973877 37.02282715 -39.08026123 37.02282715 C-40.66415848 25.93554643 -41.32880125 16.1867794 -34.78729248 6.66345215 C-29.01046717 1.11135459 -23.64819701 0.38712745 -15.95526123 0.27282715 C-14.9324707 0.24462891 -13.90968018 0.21643066 -12.855896 0.18737793 C-8.5708016 0.08658164 -4.28594416 0.04703058 0 0 Z " fill="#32FE65" transform="translate(47.08026123046875,22.9771728515625)"/>
<path d="M0 0 C4.83822728 2.85988434 8.49165727 8.05351596 10.1259613 13.40887451 C10.59928804 15.74399058 10.68256979 17.85709478 10.67602539 20.23925781 C10.67594986 21.15991028 10.67587433 22.08056274 10.67579651 23.02911377 C10.67063522 24.01466248 10.66547394 25.00021118 10.66015625 26.015625 C10.6587413 27.03098328 10.65732635 28.04634155 10.65586853 29.09246826 C10.65027516 32.33250892 10.63772385 35.57248025 10.625 38.8125 C10.61998414 41.01041567 10.61542139 43.20833242 10.61132812 45.40625 C10.6003079 50.79169334 10.58304778 56.17708492 10.5625 61.5625 C5.6125 61.5625 0.6625 61.5625 -4.4375 61.5625 C-4.467229 59.83749268 -4.467229 59.83749268 -4.49755859 58.07763672 C-4.57386046 53.79470615 -4.66253946 49.51210444 -4.75488281 45.22949219 C-4.79307122 43.37897249 -4.82794151 41.52838113 -4.859375 39.67773438 C-4.90524641 37.01145893 -4.96320359 34.34567252 -5.0234375 31.6796875 C-5.03498871 30.85757782 -5.04653992 30.03546814 -5.05844116 29.18844604 C-5.19175431 23.95274632 -5.45771694 18.95473787 -8.9375 14.75 C-12.34840086 12.04970348 -15.16856031 12.27790402 -19.4375 12.5625 C-23.22597957 14.10881284 -23.22597957 14.10881284 -26.4375 16.5625 C-26.55959924 17.97367702 -26.61520872 19.39070459 -26.64282227 20.80688477 C-26.66276749 21.70774307 -26.68271271 22.60860138 -26.70326233 23.53675842 C-26.71997482 24.51591721 -26.73668732 25.49507599 -26.75390625 26.50390625 C-26.77468735 27.50131332 -26.79546844 28.4987204 -26.81687927 29.52635193 C-26.88248637 32.72582843 -26.94131134 35.92538982 -27 39.125 C-27.04317462 41.28842039 -27.08678855 43.45183206 -27.13085938 45.61523438 C-27.23817909 50.93090164 -27.33941469 56.24665464 -27.4375 61.5625 C-32.3875 61.5625 -37.3375 61.5625 -42.4375 61.5625 C-42.7675 41.1025 -43.0975 20.6425 -43.4375 -0.4375 C-38.8175 -0.4375 -34.1975 -0.4375 -29.4375 -0.4375 C-28.7775 0.8825 -28.1175 2.2025 -27.4375 3.5625 C-26.86644531 3.2015625 -26.29539063 2.840625 -25.70703125 2.46875 C-17.65883242 -2.13753232 -8.82064845 -3.64294468 0 0 Z " fill="#32FD65" transform="translate(188.4375,114.4375)"/>
<path d="M0 0 C20.18518519 0 20.18518519 0 29.875 5.6875 C36.24963513 12.62460294 38.33864888 20.06838365 38.21484375 29.3125 C37.62601129 36.67825882 35.23685765 43.66792676 30 49 C20.8141908 56.55768985 11.84797382 56 0 56 C0 37.52 0 19.04 0 0 Z " fill="#013401" transform="translate(80,107)"/>
</svg>
