<?xml version="1.0" encoding="UTF-8"?>
<svg version="1.1" xmlns="http://www.w3.org/2000/svg" width="256" height="256">
<path d="M0 0 C10.86290584 -0.11616109 21.7229331 -0.10652707 32.58587646 0 C34.13396067 0.01514157 35.68205724 0.02907005 37.23016357 0.04174805 C41.59920328 0.07843517 45.96681066 0.13751649 50.33499146 0.23236084 C52.30648049 0.27181145 54.27829472 0.29379069 56.25006104 0.31530762 C57.43914062 0.34769531 58.62822021 0.38008301 59.85333252 0.41345215 C60.88514648 0.43439941 61.91696045 0.45534668 62.9800415 0.47692871 C69.02566819 1.59959471 72.36499096 5.24026128 75.7694397 10.02401733 C83.87493319 21.40483107 93.87061019 33.85125192 108.24493408 36.50817871 C122.28876392 38.23781168 136.58569701 37.27248046 150.66241455 36.37390137 C158.61167538 35.88170056 166.47017833 36.05233211 174.41973877 36.39782715 C175.53163574 36.41885498 176.64353271 36.43988281 177.78912354 36.46154785 C185.77115045 36.68421554 192.06591451 38.16900289 197.91973877 44.02282715 C202.60039155 52.71546802 202.06871541 62.11386939 202.06500244 71.72180176 C202.06836105 72.97647751 202.07171967 74.23115326 202.07518005 75.52384949 C202.083021 78.94537716 202.08635573 82.36684414 202.08699584 85.78837657 C202.08770933 87.93060675 202.08984925 90.07283066 202.09249306 92.21505928 C202.10172656 99.70136033 202.10583029 107.18764364 202.1050415 114.6739502 C202.10444065 121.6324265 202.1149991 128.59082531 202.13078517 135.54928201 C202.14389167 141.54189476 202.14922413 147.53448225 202.14858609 153.52710921 C202.1483321 157.09820353 202.15112872 160.66922883 202.16176414 164.24030876 C202.17330942 168.22505559 202.16867929 172.20969722 202.16265869 176.19445801 C202.1682782 177.36512817 202.17389771 178.53579834 202.1796875 179.74194336 C202.14585706 188.57079475 201.9292154 197.06448579 195.91973877 204.02282715 C188.88040824 209.57306853 182.40382078 210.17444128 173.58334351 210.15653992 C172.34680411 210.15993825 172.34680411 210.15993825 171.08528411 210.16340524 C168.33103198 210.16972062 165.57682936 210.16891746 162.8225708 210.16809082 C160.84454281 210.17108383 158.86651541 210.17448668 156.88848877 210.17826843 C151.52070639 210.18709774 146.15293995 210.18944608 140.785151 210.19008422 C137.43050502 210.19079527 134.07586309 210.19293063 130.72121811 210.19558144 C119.01509087 210.20483096 107.30897501 210.20891677 95.60284424 210.20812988 C84.69540665 210.20752903 73.7880185 210.21808336 62.88059342 210.23387355 C53.51142047 210.24695299 44.14226367 210.25231362 34.77308166 210.25167447 C29.17929144 210.25141963 23.58554518 210.25426359 17.99176407 210.26485252 C12.73045892 210.27454039 7.46923971 210.27460792 2.20793152 210.26733589 C0.27944183 210.26629095 -1.64905323 210.26864759 -3.57753372 210.27469635 C-6.21508931 210.28243192 -8.8523493 210.27776114 -11.48989868 210.27006531 C-12.24847479 210.27520887 -13.00705089 210.28035243 -13.78861415 210.28565186 C-21.38302103 210.23686517 -28.04268881 208.96265913 -34.08026123 204.02282715 C-41.52262423 195.13333801 -40.3692302 183.53914645 -40.33905029 172.61437988 C-40.34176398 170.96102749 -40.34532702 169.30767631 -40.34967041 167.65432739 C-40.35875108 163.18542703 -40.35526824 158.71661951 -40.34891224 154.24771762 C-40.34383066 149.56028932 -40.3485496 144.87286869 -40.35168457 140.18544006 C-40.35531757 132.31652405 -40.35054222 124.44764565 -40.34100342 116.57873535 C-40.33011637 107.49292058 -40.33364895 98.40719555 -40.34465623 89.32138294 C-40.35374356 81.50627134 -40.35500742 73.69118669 -40.34977889 65.87607151 C-40.34666763 61.21459645 -40.34622669 56.55316353 -40.35285187 51.89169121 C-40.35864588 47.50938227 -40.3545909 43.12718865 -40.34306335 38.74489212 C-40.34042791 37.14052713 -40.34116271 35.53615236 -40.34558868 33.93179131 C-40.39428799 14.47971046 -40.39428799 14.47971046 -35.89276123 8.27282715 C-35.3455542 7.47618652 -35.3455542 7.47618652 -34.78729248 6.66345215 C-29.01046717 1.11135459 -23.64819701 0.38712745 -15.95526123 0.27282715 C-14.9324707 0.24462891 -13.90968018 0.21643066 -12.855896 0.18737793 C-8.5708016 0.08658164 -4.28594416 0.04703058 0 0 Z " fill="#BE6752" transform="translate(47.08026123046875,22.9771728515625)"/>
<path d="M0 0 C9.55294341 7.019477 17.68640967 17.11010535 20.625 28.76171875 C20.89461141 30.60797076 21.09078846 32.46518984 21.25 34.32421875 C21.31509766 35.02192383 21.38019531 35.71962891 21.44726562 36.43847656 C22.69609048 51.69558422 19.56361832 64.02233286 9.75 76.01171875 C8.61925822 77.15264739 7.45293222 78.25967696 6.25 79.32421875 C5.34507812 80.12859375 5.34507812 80.12859375 4.421875 80.94921875 C-6.95900297 90.20196507 -19.49098398 92.63598329 -33.75390625 92.625 C-34.99115952 92.62928513 -36.22841278 92.63357025 -37.50315857 92.63798523 C-40.10944 92.64370921 -42.7157374 92.6442431 -45.32202148 92.63989258 C-49.30284848 92.63672643 -53.28293626 92.66023882 -57.26367188 92.68554688 C-59.8020824 92.68781947 -62.34049491 92.68852355 -64.87890625 92.6875 C-66.06448624 92.69670975 -67.25006622 92.70591949 -68.47157288 92.71540833 C-74.70411108 92.6805859 -79.24392391 92.30851865 -84.75 89.32421875 C-85.79800781 88.88529297 -85.79800781 88.88529297 -86.8671875 88.4375 C-96.57334168 84.01580754 -103.08411241 76.79058684 -107.75 67.32421875 C-108.26046875 66.33228516 -108.26046875 66.33228516 -108.78125 65.3203125 C-112.58047816 56.33232365 -112.21931993 43.55861808 -109.25 34.38671875 C-103.96486056 22.29044891 -95.83656986 14.20464511 -83.828125 9.0859375 C-79.65208115 7.55524474 -76.26577372 7.32421875 -71.8125 7.32421875 C-64.60617674 6.84756732 -60.34720767 3.75096256 -54.83203125 -0.4453125 C-38.71100444 -12.11211391 -16.3046857 -9.93566785 0 0 Z " fill="#FDFAF8" transform="translate(172.75,103.67578125)"/>
<path d="M0 0 C10.86290584 -0.11616109 21.7229331 -0.10652707 32.58587646 0 C34.13396067 0.01514157 35.68205724 0.02907005 37.23016357 0.04174805 C41.59920328 0.07843517 45.96681066 0.13751649 50.33499146 0.23236084 C52.30648049 0.27181145 54.27829472 0.29379069 56.25006104 0.31530762 C57.43914062 0.34769531 58.62822021 0.38008301 59.85333252 0.41345215 C60.88514648 0.43439941 61.91696045 0.45534668 62.9800415 0.47692871 C69.77747286 1.73920398 74.37664496 7.18373071 79.06817627 11.90563965 C79.72556793 12.56111786 80.38295959 13.21659607 81.06027222 13.89193726 C82.43922589 15.26953666 83.81568412 16.64963804 85.1897583 18.03210449 C87.3019535 20.15507869 89.42469717 22.26708684 91.54864502 24.3782959 C92.88913113 25.72010239 94.22899737 27.0625285 95.56817627 28.40563965 C96.20556732 29.03898224 96.84295837 29.67232483 97.49966431 30.32485962 C101.91973877 34.79287432 101.91973877 34.79287432 101.91973877 37.02282715 C55.38973877 37.02282715 8.85973877 37.02282715 -39.08026123 37.02282715 C-40.66415848 25.93554643 -41.32880125 16.1867794 -34.78729248 6.66345215 C-29.01046717 1.11135459 -23.64819701 0.38712745 -15.95526123 0.27282715 C-14.9324707 0.24462891 -13.90968018 0.21643066 -12.855896 0.18737793 C-8.5708016 0.08658164 -4.28594416 0.04703058 0 0 Z " fill="#FEFEFE" transform="translate(47.08026123046875,22.9771728515625)"/>
<path d="M0 0 C8.93075696 6.45538411 14.78052238 14.90406715 18.25 25.3125 C19.64565879 39.5694195 18.23516819 51.85294784 9.625 63.6875 C2.143137 72.42108152 -8.82327157 78.36698982 -20.2578125 79.578125 C-34.65540178 80.16578171 -45.10542248 74.11440965 -55.58496094 64.79003906 C-58.39738019 62.13468337 -61.14394261 59.42633818 -63.875 56.6875 C-64.81859375 55.77226562 -65.7621875 54.85703125 -66.734375 53.9140625 C-67.62898438 53.02203125 -68.52359375 52.13 -69.4453125 51.2109375 C-70.24984863 50.41349121 -71.05438477 49.61604492 -71.88330078 48.79443359 C-74.07076047 45.88602198 -74.541186 43.91934366 -74.75 40.3125 C-73.6875 37.9375 -73.6875 37.9375 -71.75 36.3125 C-68.01321883 35.81443523 -66.34853724 35.86773012 -63.28393555 38.14501953 C-62.09731323 39.40741455 -62.09731323 39.40741455 -60.88671875 40.6953125 C-59.99919922 41.61570313 -59.11167969 42.53609375 -58.19726562 43.484375 C-57.27617434 44.46765586 -56.35625785 45.45203848 -55.4375 46.4375 C-43.21321928 59.7143815 -43.21321928 59.7143815 -26.671875 65.6484375 C-17.36528363 65.76305069 -9.879445 64.54754759 -2.875 58.0625 C3.98490671 50.55543228 5.56306856 42.76157068 5.4609375 32.82421875 C4.99022621 24.98774749 1.63489749 18.97634488 -3.75 13.3125 C-10.70438469 7.72920335 -18.06892065 5.87154589 -26.90234375 5.96875 C-30.81304598 6.44082379 -33.97447089 7.84876771 -37.4609375 9.6328125 C-41.17241252 10.73485457 -43.50722642 8.97114596 -46.76953125 7.2421875 C-48.4296875 6.265625 -50.08984375 5.2890625 -51.75 4.3125 C-39.16250545 -10.87930377 -15.47248116 -9.47887498 0 0 Z " fill="#E48526" transform="translate(168.75,109.6875)"/>
<path d="M0 0 C4.50409727 3.34743284 8.21131025 7.15890602 11.77734375 11.4765625 C13.54232219 13.52426059 15.43741573 15.31119312 17.421875 17.14453125 C19.59787269 19.30092535 20.39910883 20.12371804 21.171875 23.14453125 C20.23408109 26.29892894 19.2049176 27.59560736 16.484375 29.45703125 C13.10466798 29.61820953 11.12352727 28.98812426 8.51757812 26.82275391 C6.30305586 24.62425643 4.16461022 22.37390385 2.046875 20.08203125 C-5.70002245 11.63420467 -5.70002245 11.63420467 -16.32421875 8.05859375 C-23.01001861 8.11819969 -29.14931998 8.35313308 -34.26953125 13.07421875 C-39.8122643 19.29810695 -40.98325847 23.84104967 -40.82421875 32.1953125 C-40.21596907 38.62428068 -37.76767098 42.57051904 -33.015625 46.83203125 C-29.26929216 49.88018388 -26.33264132 51.60161657 -21.453125 51.51953125 C-13.55917122 52.18717908 -7.83056184 59.10367781 -2.515625 64.45703125 C-6.47370215 64.57464269 -10.43132121 64.64475007 -14.390625 64.70703125 C-15.49921875 64.74054688 -16.6078125 64.7740625 -17.75 64.80859375 C-28.79491971 64.93853398 -36.53132836 62.24823721 -44.54296875 54.58984375 C-51.81357679 46.72894872 -55.29602069 37.03405299 -54.91796875 26.3125 C-53.50212381 16.26412472 -48.20086819 7.93426465 -40.515625 1.45703125 C-27.22911884 -6.73853976 -13.83094052 -8.48326321 0 0 Z " fill="#CE5D5E" transform="translate(122.515625,123.54296875)"/>
</svg>
