<?xml version="1.0" encoding="UTF-8"?>
<svg version="1.1" xmlns="http://www.w3.org/2000/svg" width="256" height="256">
<path d="M0 0 C10.86290584 -0.11616109 21.7229331 -0.10652707 32.58587646 0 C34.13396067 0.01514157 35.68205724 0.02907005 37.23016357 0.04174805 C41.59920328 0.07843517 45.96681066 0.13751649 50.33499146 0.23236084 C52.30648049 0.27181145 54.27829472 0.29379069 56.25006104 0.31530762 C57.43914062 0.34769531 58.62822021 0.38008301 59.85333252 0.41345215 C60.88514648 0.43439941 61.91696045 0.45534668 62.9800415 0.47692871 C69.02566819 1.59959471 72.36499096 5.24026128 75.7694397 10.02401733 C83.87493319 21.40483107 93.87061019 33.85125192 108.24493408 36.50817871 C122.28876392 38.23781168 136.58569701 37.27248046 150.66241455 36.37390137 C158.61167538 35.88170056 166.47017833 36.05233211 174.41973877 36.39782715 C175.53163574 36.41885498 176.64353271 36.43988281 177.78912354 36.46154785 C185.77115045 36.68421554 192.06591451 38.16900289 197.91973877 44.02282715 C202.60039155 52.71546802 202.06871541 62.11386939 202.06500244 71.72180176 C202.06836105 72.97647751 202.07171967 74.23115326 202.07518005 75.52384949 C202.083021 78.94537716 202.08635573 82.36684414 202.08699584 85.78837657 C202.08770933 87.93060675 202.08984925 90.07283066 202.09249306 92.21505928 C202.10172656 99.70136033 202.10583029 107.18764364 202.1050415 114.6739502 C202.10444065 121.6324265 202.1149991 128.59082531 202.13078517 135.54928201 C202.14389167 141.54189476 202.14922413 147.53448225 202.14858609 153.52710921 C202.1483321 157.09820353 202.15112872 160.66922883 202.16176414 164.24030876 C202.17330942 168.22505559 202.16867929 172.20969722 202.16265869 176.19445801 C202.1682782 177.36512817 202.17389771 178.53579834 202.1796875 179.74194336 C202.14585706 188.57079475 201.9292154 197.06448579 195.91973877 204.02282715 C188.88040824 209.57306853 182.40382078 210.17444128 173.58334351 210.15653992 C172.34680411 210.15993825 172.34680411 210.15993825 171.08528411 210.16340524 C168.33103198 210.16972062 165.57682936 210.16891746 162.8225708 210.16809082 C160.84454281 210.17108383 158.86651541 210.17448668 156.88848877 210.17826843 C151.52070639 210.18709774 146.15293995 210.18944608 140.785151 210.19008422 C137.43050502 210.19079527 134.07586309 210.19293063 130.72121811 210.19558144 C119.01509087 210.20483096 107.30897501 210.20891677 95.60284424 210.20812988 C84.69540665 210.20752903 73.7880185 210.21808336 62.88059342 210.23387355 C53.51142047 210.24695299 44.14226367 210.25231362 34.77308166 210.25167447 C29.17929144 210.25141963 23.58554518 210.25426359 17.99176407 210.26485252 C12.73045892 210.27454039 7.46923971 210.27460792 2.20793152 210.26733589 C0.27944183 210.26629095 -1.64905323 210.26864759 -3.57753372 210.27469635 C-6.21508931 210.28243192 -8.8523493 210.27776114 -11.48989868 210.27006531 C-12.24847479 210.27520887 -13.00705089 210.28035243 -13.78861415 210.28565186 C-21.38302103 210.23686517 -28.04268881 208.96265913 -34.08026123 204.02282715 C-41.52262423 195.13333801 -40.3692302 183.53914645 -40.33905029 172.61437988 C-40.34176398 170.96102749 -40.34532702 169.30767631 -40.34967041 167.65432739 C-40.35875108 163.18542703 -40.35526824 158.71661951 -40.34891224 154.24771762 C-40.34383066 149.56028932 -40.3485496 144.87286869 -40.35168457 140.18544006 C-40.35531757 132.31652405 -40.35054222 124.44764565 -40.34100342 116.57873535 C-40.33011637 107.49292058 -40.33364895 98.40719555 -40.34465623 89.32138294 C-40.35374356 81.50627134 -40.35500742 73.69118669 -40.34977889 65.87607151 C-40.34666763 61.21459645 -40.34622669 56.55316353 -40.35285187 51.89169121 C-40.35864588 47.50938227 -40.3545909 43.12718865 -40.34306335 38.74489212 C-40.34042791 37.14052713 -40.34116271 35.53615236 -40.34558868 33.93179131 C-40.39428799 14.47971046 -40.39428799 14.47971046 -35.89276123 8.27282715 C-35.3455542 7.47618652 -35.3455542 7.47618652 -34.78729248 6.66345215 C-29.01046717 1.11135459 -23.64819701 0.38712745 -15.95526123 0.27282715 C-14.9324707 0.24462891 -13.90968018 0.21643066 -12.855896 0.18737793 C-8.5708016 0.08658164 -4.28594416 0.04703058 0 0 Z " fill="#000B1D" transform="translate(47.08026123046875,22.9771728515625)"/>
<path d="M0 0 C10.86290584 -0.11616109 21.7229331 -0.10652707 32.58587646 0 C34.13396067 0.01514157 35.68205724 0.02907005 37.23016357 0.04174805 C41.59920328 0.07843517 45.96681066 0.13751649 50.33499146 0.23236084 C52.30648049 0.27181145 54.27829472 0.29379069 56.25006104 0.31530762 C57.43914062 0.34769531 58.62822021 0.38008301 59.85333252 0.41345215 C60.88514648 0.43439941 61.91696045 0.45534668 62.9800415 0.47692871 C69.77747286 1.73920398 74.37664496 7.18373071 79.06817627 11.90563965 C79.72556793 12.56111786 80.38295959 13.21659607 81.06027222 13.89193726 C82.43922589 15.26953666 83.81568412 16.64963804 85.1897583 18.03210449 C87.3019535 20.15507869 89.42469717 22.26708684 91.54864502 24.3782959 C92.88913113 25.72010239 94.22899737 27.0625285 95.56817627 28.40563965 C96.20556732 29.03898224 96.84295837 29.67232483 97.49966431 30.32485962 C101.91973877 34.79287432 101.91973877 34.79287432 101.91973877 37.02282715 C55.38973877 37.02282715 8.85973877 37.02282715 -39.08026123 37.02282715 C-40.66415848 25.93554643 -41.32880125 16.1867794 -34.78729248 6.66345215 C-29.01046717 1.11135459 -23.64819701 0.38712745 -15.95526123 0.27282715 C-14.9324707 0.24462891 -13.90968018 0.21643066 -12.855896 0.18737793 C-8.5708016 0.08658164 -4.28594416 0.04703058 0 0 Z " fill="#A692F9" transform="translate(47.08026123046875,22.9771728515625)"/>
<path d="M0 0 C9.24525473 8.71391825 14.99471764 20.25704413 15.77734375 32.89453125 C16.20607863 49.14800508 12.04880427 62.28231711 0.7265625 74.359375 C-8.5884485 83.085506 -20.21199891 88.13190719 -33.0234375 88.484375 C-54.22245584 87.71722114 -68.62776875 74.9012844 -82.4609375 60.046875 C-89.42402254 52.5162224 -89.42402254 52.5162224 -91.4609375 48.046875 C-92.1209375 48.046875 -92.7809375 48.046875 -93.4609375 48.046875 C-93.94038955 41.81399829 -93.94038955 41.81399829 -91.8984375 38.546875 C-89.4609375 37.046875 -89.4609375 37.046875 -86.2109375 36.859375 C-79.21040483 39.07621035 -74.82270139 44.67446855 -69.77099609 49.7824707 C-58.97302539 60.68838982 -48.80915885 70.70339219 -32.7109375 71.296875 C-23.23298763 71.14241952 -16.22754158 67.63541055 -9.4609375 61.046875 C-1.47791078 51.39218884 -0.52169112 41.20891148 -1.4609375 29.046875 C-3.09168463 21.26470198 -7.51386025 15.21735797 -13.4609375 10.046875 C-16.66591391 7.9610967 -19.89572173 6.4167891 -23.4609375 5.046875 C-24.44707031 4.66208984 -24.44707031 4.66208984 -25.453125 4.26953125 C-32.33690936 2.08442958 -40.77394508 2.49532127 -47.2734375 5.671875 C-51.31719821 7.41624237 -53.23656245 7.23266449 -57.4609375 6.046875 C-60.25282437 4.54771039 -62.87073563 2.87010801 -65.4609375 1.046875 C-60.56690375 -5.96790671 -53.29197866 -9.88781134 -44.9140625 -11.67578125 C-27.81063387 -13.60944914 -13.6254954 -10.81388524 0 0 Z " fill="#A08646" transform="translate(183.4609375,107.953125)"/>
<path d="M0 0 C0 0.66 0 1.32 0 2 C0.99 2 1.98 2 3 2 C3 2.66 3 3.32 3 4 C3.59683594 4.09539062 4.19367188 4.19078125 4.80859375 4.2890625 C7.49797505 5.1615534 8.31015979 6.17897262 10.0625 8.375 C13.96410004 13.07388353 18.25601775 17.24718955 22.64453125 21.484375 C24.68781167 23.66658493 25.99164926 25.21813826 27 28 C26.79677533 30.7774038 26.33818682 32.48382011 24.8125 34.8125 C21.90372576 36.71824864 20.43155989 36.64746413 17 36 C12.29076929 32.81083743 8.4725571 28.47159412 4.5 24.4375 C-3.13094238 16.74077363 -8.29080024 12.93829317 -19.3125 12.6875 C-26.40534481 12.77546087 -30.81161724 13.96977115 -35.96875 18.87109375 C-42.08807257 25.50453973 -43.4873764 30.71858406 -43.3046875 39.7109375 C-42.66166254 46.65230952 -40.19691458 51.20565632 -35.125 55.9375 C-31.16168703 59.09940777 -27.73249201 60.59843445 -22.6875 61.33984375 C-16.27914246 62.36557171 -11.60369004 64.26771526 -7 69 C-7 69.66 -7 70.32 -7 71 C-6.13375 71.37125 -6.13375 71.37125 -5.25 71.75 C-2.68684812 73.17397327 -0.95895126 74.83116111 1 77 C1 77.33 1 77.66 1 78 C-33.47796846 79.45984326 -33.47796846 79.45984326 -44 71 C-44.7734375 70.42121094 -45.546875 69.84242188 -46.34375 69.24609375 C-53.12097366 63.39188749 -57.21154786 54.36535641 -60 46 C-61.06339307 31.18845371 -59.26852432 19.91639498 -49.296875 8.2578125 C-35.10670355 -5.69102951 -17.95797478 -6.58361105 0 0 Z " fill="#B14FAC" transform="translate(120,117)"/>
<path d="M0 0 C0.76671021 0.0062439 1.53342041 0.01248779 2.32336426 0.0189209 C6.68943799 0.05550876 11.05407089 0.11453554 15.41928101 0.20953369 C17.38910067 0.24902957 19.35924748 0.27097635 21.3293457 0.29248047 C33.40414465 0.62128012 38.21442411 5.92022557 46.375 14.25 C47.20644531 15.09046875 48.03789062 15.9309375 48.89453125 16.796875 C50.93431547 18.86010502 52.96926286 20.92787123 55 23 C54.67 23.66 54.34 24.32 54 25 C53.38125 24.835 52.7625 24.67 52.125 24.5 C47.74529271 23.79924683 43.42571011 23.92265749 39 24 C39 24.33 39 24.66 39 25 C34.05 25 29.1 25 24 25 C24 24.34 24 23.68 24 23 C22.92621094 23.01160156 21.85242188 23.02320312 20.74609375 23.03515625 C19.30989759 23.04454315 17.87369952 23.05364238 16.4375 23.0625 C15.73302734 23.07087891 15.02855469 23.07925781 14.30273438 23.08789062 C9.75975202 23.10882603 5.48215108 22.74800682 1 22 C1 21.34 1 20.68 1 20 C-0.57587891 20.05220703 -0.57587891 20.05220703 -2.18359375 20.10546875 C-15.49295453 20.41487807 -15.49295453 20.41487807 -21.78125 17.86328125 C-27.898237 15.48325638 -34.56682478 14.24437331 -41 13 C-41 12.34 -41 11.68 -41 11 C-41.65226562 10.97421875 -42.30453125 10.9484375 -42.9765625 10.921875 C-48.77168479 10.54579037 -52.70511379 10.06883957 -57 6 C-57.1484375 3.359375 -57.1484375 3.359375 -57 1 C-38.01829342 -0.35066781 -19.01638526 -0.18374743 0 0 Z " fill="#FD430E" transform="translate(82,23)"/>
<path d="M0 0 C0.061875 0.763125 0.12375 1.52625 0.1875 2.3125 C0.77105957 5.10256856 0.77105957 5.10256856 2.9375 6.6875 C7.17078777 8.50176619 11.47121295 9.25253029 16 10 C16 10.66 16 11.32 16 12 C16.61746094 12.03738281 17.23492187 12.07476562 17.87109375 12.11328125 C23.12632824 12.52122183 27.75434906 13.3496712 32.69921875 15.18359375 C38.68236479 17.30664557 44.14155594 18.3485084 50.4375 18.625 C51.53481445 18.68300781 51.53481445 18.68300781 52.65429688 18.7421875 C54.43583532 18.83533984 56.21788122 18.91870286 58 19 C57.505 20.485 57.505 20.485 57 22 C47.1 22.495 47.1 22.495 37 23 C37 23.33 37 23.66 37 24 C27.65239025 26.41228639 15.25632348 25.50618806 6.328125 21.9296875 C3.79868694 20.75276447 3.79868694 20.75276447 0 21 C-0.33 20.34 -0.66 19.68 -1 19 C-2.65 19 -4.3 19 -6 19 C-5.67 17.68 -5.34 16.36 -5 15 C-5.66 14.67 -6.32 14.34 -7 14 C-7.92866164 12.51132724 -8.79705336 10.98445294 -9.625 9.4375 C-10.29402344 8.19806641 -10.29402344 8.19806641 -10.9765625 6.93359375 C-11.31429688 6.29550781 -11.65203125 5.65742188 -12 5 C-10.75747321 4.15556432 -9.5056114 3.3248542 -8.25 2.5 C-7.55390625 2.0359375 -6.8578125 1.571875 -6.140625 1.09375 C-4 0 -4 0 0 0 Z " fill="#F84F8D" transform="translate(25,24)"/>
<path d="M0 0 C1.670625 0.061875 1.670625 0.061875 3.375 0.125 C3.375 0.785 3.375 1.445 3.375 2.125 C9.315 1.63 9.315 1.63 15.375 1.125 C15.375 0.795 15.375 0.465 15.375 0.125 C17.39575566 0.09765143 19.41662221 0.0784483 21.4375 0.0625 C22.56285156 0.05089844 23.68820313 0.03929687 24.84765625 0.02734375 C35.29181819 0.31649552 35.29181819 0.31649552 39.90039062 5.02539062 C40.36638672 5.53263672 40.83238281 6.03988281 41.3125 6.5625 C41.80556641 7.06587891 42.29863281 7.56925781 42.80664062 8.08789062 C46.375 11.81462379 46.375 11.81462379 46.375 14.125 C27.895 14.125 9.415 14.125 -9.625 14.125 C-9.625 12.805 -9.625 11.485 -9.625 10.125 C-10.945 9.795 -12.265 9.465 -13.625 9.125 C-13.625 8.135 -13.625 7.145 -13.625 6.125 C-12.85414062 6.06441406 -12.08328125 6.00382812 -11.2890625 5.94140625 C-10.28617187 5.85761719 -9.28328125 5.77382813 -8.25 5.6875 C-7.25226563 5.60628906 -6.25453125 5.52507813 -5.2265625 5.44140625 C-2.64572387 5.27534374 -2.64572387 5.27534374 -0.625 4.125 C-3.1 3.135 -3.1 3.135 -5.625 2.125 C-3.625 0.125 -3.625 0.125 0 0 Z " fill="#C7DA33" transform="translate(102.625,45.875)"/>
<path d="M0 0 C1.03000122 0.0141394 1.03000122 0.0141394 2.08081055 0.02856445 C7.749696 0.33155783 7.99050178 1.36550178 12.5 5.875 C7.88 6.535 3.26 7.195 -1.5 7.875 C-1.5 8.535 -1.5 9.195 -1.5 9.875 C-0.51 10.205 0.48 10.535 1.5 10.875 C1.5 12.195 1.5 13.515 1.5 14.875 C-4.44 14.875 -10.38 14.875 -16.5 14.875 C-16.5 13.555 -16.5 12.235 -16.5 10.875 C-17.23605469 10.89820313 -17.97210938 10.92140625 -18.73046875 10.9453125 C-19.70628906 10.96335937 -20.68210938 10.98140625 -21.6875 11 C-22.65042969 11.02320313 -23.61335938 11.04640625 -24.60546875 11.0703125 C-27.651912 10.86474953 -29.72282663 10.09232766 -32.5 8.875 C-34.82375692 8.48039977 -37.1593935 8.15269908 -39.5 7.875 C-43.86745557 7.35090533 -48.1982689 6.81600368 -52.5 5.875 C-52.5 5.215 -52.5 4.555 -52.5 3.875 C-53.82 3.215 -55.14 2.555 -56.5 1.875 C-55.85450195 1.9157666 -55.20900391 1.9565332 -54.54394531 1.99853516 C-51.61319884 2.1771621 -48.68175194 2.33875364 -45.75 2.5 C-44.22632813 2.59667969 -44.22632813 2.59667969 -42.671875 2.6953125 C-41.6921875 2.746875 -40.7125 2.7984375 -39.703125 2.8515625 C-38.80239258 2.90393066 -37.90166016 2.95629883 -36.97363281 3.01025391 C-34.26562781 2.86218494 -32.86815175 2.1259703 -30.5 0.875 C-28.38793945 0.5402832 -28.38793945 0.5402832 -26.11328125 0.42578125 C-25.26507813 0.38146973 -24.416875 0.3371582 -23.54296875 0.29150391 C-22.64191406 0.25718262 -21.74085937 0.22286133 -20.8125 0.1875 C-19.4203125 0.13215088 -19.4203125 0.13215088 -18 0.07568359 C-11.99657615 -0.12449897 -6.00374838 -0.21158291 0 0 Z " fill="#9B87E4" transform="translate(91.5,45.125)"/>
<path d="M0 0 C1.61455078 0.00773437 1.61455078 0.00773437 3.26171875 0.015625 C19.34468168 0.17234084 19.34468168 0.17234084 23.5 2.25 C23.5 1.59 23.5 0.93 23.5 0.25 C27.59998139 0.06363721 29.89234195 0.44617097 33.5 2.25 C34.8921875 2.2190625 34.8921875 2.2190625 36.3125 2.1875 C41.03011386 2.28000223 44.8717688 3.83186315 48.4375 6.9375 C48.788125 7.370625 49.13875 7.80375 49.5 8.25 C49.17 8.91 48.84 9.57 48.5 10.25 C47.88125 10.085 47.2625 9.92 46.625 9.75 C42.24529271 9.04924683 37.92571011 9.17265749 33.5 9.25 C33.5 9.58 33.5 9.91 33.5 10.25 C28.55 10.25 23.6 10.25 18.5 10.25 C18.5 9.59 18.5 8.93 18.5 8.25 C17.42621094 8.26160156 16.35242188 8.27320313 15.24609375 8.28515625 C13.80989759 8.29454315 12.37369952 8.30364238 10.9375 8.3125 C9.88079102 8.32506836 9.88079102 8.32506836 8.80273438 8.33789062 C4.25975202 8.35882603 -0.01784892 7.99800682 -4.5 7.25 C-4.5 6.59 -4.5 5.93 -4.5 5.25 C-9.78 5.25 -15.06 5.25 -20.5 5.25 C-20.83 4.59 -21.16 3.93 -21.5 3.25 C-14.27842932 0.19259172 -7.77415178 -0.14896578 0 0 Z " fill="#A9AF37" transform="translate(87.5,37.75)"/>
<path d="M0 0 C3 1 3 1 5.203125 3.90625 C8.07990456 7.49900898 11.38018633 8.47534712 15.75 9.5 C17.26290179 9.89655538 18.77459456 10.29774692 20.28515625 10.703125 C21.06004395 10.90873047 21.83493164 11.11433594 22.63330078 11.32617188 C27.2696378 12.64619355 31.77494648 14.35131541 36.29003906 16.03320312 C40.18218618 17.45646511 43.88886603 18.46293118 48 19 C48 19.33 48 19.66 48 20 C38.65239025 22.41228639 26.25632348 21.50618806 17.328125 17.9296875 C14.79868694 16.75276447 14.79868694 16.75276447 11 17 C10.67 16.34 10.34 15.68 10 15 C8.35 15 6.7 15 5 15 C5.33 13.68 5.66 12.36 6 11 C5.34 10.67 4.68 10.34 4 10 C3.07133836 8.51132724 2.20294664 6.98445294 1.375 5.4375 C0.92898438 4.61121094 0.48296875 3.78492188 0.0234375 2.93359375 C-0.31429688 2.29550781 -0.65203125 1.65742188 -1 1 C-0.67 0.67 -0.34 0.34 0 0 Z " fill="#BF73C7" transform="translate(14,28)"/>
<path d="M0 0 C5.28 0 10.56 0 16 0 C16.33 2.31 16.66 4.62 17 7 C17.969375 7.309375 18.93875 7.61875 19.9375 7.9375 C23 9 23 9 24 10 C26.47749328 10.5485665 28.94267438 11.04417129 31.4375 11.5 C32.15873047 11.6338208 32.87996094 11.7676416 33.62304688 11.90551758 C39.06114513 12.88901636 44.48420085 13.61548516 50 14 C45.99099309 17.53241168 43.03460116 17.43394168 37.8671875 17.296875 C34.41524326 16.93945298 31.50852028 16.03439362 28.28125 14.80078125 C24.29711013 13.402239 20.14916725 12.73628229 16 12 C16 11.34 16 10.68 16 10 C15.34773438 9.97421875 14.69546875 9.9484375 14.0234375 9.921875 C8.22831521 9.54579037 4.29488621 9.06883957 0 5 C0 3.35 0 1.7 0 0 Z " fill="#FA4162" transform="translate(25,24)"/>
<path d="M0 0 C0 0.66 0 1.32 0 2 C2.31 2 4.62 2 7 2 C7 2.99 7 3.98 7 5 C-4.22 5 -15.44 5 -27 5 C-27 3.68 -27 2.36 -27 1 C-28.32 0.67 -29.64 0.34 -31 0 C-31 -0.99 -31 -1.98 -31 -3 C-20.15750713 -4.38732684 -10.12229731 -4.47716997 0 0 Z " fill="#6CDA4A" transform="translate(120,55)"/>
<path d="M0 0 C1.03000122 0.0141394 1.03000122 0.0141394 2.08081055 0.02856445 C5.9769066 0.23680491 7.46528477 0.84512663 10.46875 3.4296875 C11.1390625 4.23664062 11.809375 5.04359375 12.5 5.875 C2.56878233 8.74051235 -8.98031813 6.55449072 -19.1875 5.875 C-20.67901558 5.77832319 -22.17055197 5.68196682 -23.66210938 5.5859375 C-27.27498651 5.3526453 -30.88756427 5.11504168 -34.5 4.875 C-34.5 4.215 -34.5 3.555 -34.5 2.875 C-31.61595352 1.25081142 -29.41161974 0.59181332 -26.11328125 0.42578125 C-25.26507813 0.38146973 -24.416875 0.3371582 -23.54296875 0.29150391 C-22.64191406 0.25718262 -21.74085937 0.22286133 -20.8125 0.1875 C-19.4203125 0.13215088 -19.4203125 0.13215088 -18 0.07568359 C-11.99657615 -0.12449897 -6.00374838 -0.21158291 0 0 Z " fill="#A68D64" transform="translate(91.5,45.125)"/>
<path d="M0 0 C1.670625 0.061875 1.670625 0.061875 3.375 0.125 C3.375 0.785 3.375 1.445 3.375 2.125 C4.385625 2.063125 5.39625 2.00125 6.4375 1.9375 C10.79059362 1.9375 14.98478087 2.63252072 19.25 3.4375 C20.54679687 3.68113281 21.84359375 3.92476562 23.1796875 4.17578125 C26.375 5.125 26.375 5.125 28.375 8.125 C28.5 11.3125 28.5 11.3125 28.375 14.125 C27.055 14.125 25.735 14.125 24.375 14.125 C24.375 13.135 24.375 12.145 24.375 11.125 C22.065 11.125 19.755 11.125 17.375 11.125 C17.045 10.465 16.715 9.805 16.375 9.125 C11.40484035 7.4006589 6.59679824 6.67466297 1.375 6.125 C1.375 5.465 1.375 4.805 1.375 4.125 C-0.935 3.465 -3.245 2.805 -5.625 2.125 C-3.625 0.125 -3.625 0.125 0 0 Z " fill="#92D03F" transform="translate(102.625,45.875)"/>
<path d="M0 0 C4.79811567 0.54555834 9.59607814 0.96564569 14.41015625 1.34375 C16.5625 1.625 16.5625 1.625 17.5625 2.625 C20.25485776 2.86178716 22.92748156 3.04698025 25.625 3.1875 C26.76291992 3.25227539 26.76291992 3.25227539 27.92382812 3.31835938 C29.80315438 3.42473633 31.68280244 3.52539934 33.5625 3.625 C33.2325 4.615 32.9025 5.605 32.5625 6.625 C16.93434933 8.00559779 3.90362941 8.51593265 -10.4375 1.625 C-9.81875 1.480625 -9.2 1.33625 -8.5625 1.1875 C-2.81656891 -0.33348176 -2.81656891 -0.33348176 0 0 Z " fill="#D15978" transform="translate(49.4375,39.375)"/>
<path d="M0 0 C1.10988281 0.00515625 2.21976563 0.0103125 3.36328125 0.015625 C8.139114 0.06160173 12.57780943 0.18978031 17.25 1.25 C15.25 4.25 15.25 4.25 13.0859375 4.76171875 C12.27382812 4.81972656 11.46171875 4.87773438 10.625 4.9375 C9.39910156 5.03611328 9.39910156 5.03611328 8.1484375 5.13671875 C7.52195312 5.17410156 6.89546875 5.21148437 6.25 5.25 C6.25 5.58 6.25 5.91 6.25 6.25 C-0.30334737 6.37495789 -6.83132831 6.22052347 -13.375 5.875 C-14.44137695 5.8287146 -14.44137695 5.8287146 -15.52929688 5.78149414 C-17.27554772 5.6794598 -19.01513586 5.47371727 -20.75 5.25 C-21.08 4.59 -21.41 3.93 -21.75 3.25 C-14.31692924 0.27049906 -7.96082564 -0.15002734 0 0 Z " fill="#DF712D" transform="translate(87.75,37.75)"/>
<path d="M0 0 C3.63 0 7.26 0 11 0 C11.33 1.32 11.66 2.64 12 4 C12.99 4.33 13.98 4.66 15 5 C15 6.32 15 7.64 15 9 C9.06 9 3.12 9 -3 9 C-3.33 6.69 -3.66 4.38 -4 2 C-2.68 2 -1.36 2 0 2 C0 1.34 0 0.68 0 0 Z " fill="#57A8D7" transform="translate(78,51)"/>
<path d="M0 0 C4.09998139 -0.18636279 6.39234195 0.19617097 10 2 C10.928125 1.979375 11.85625 1.95875 12.8125 1.9375 C17.53011386 2.03000223 21.3717688 3.58186315 24.9375 6.6875 C25.4634375 7.3371875 25.4634375 7.3371875 26 8 C25.67 8.66 25.34 9.32 25 10 C24.30519531 9.82984375 23.61039063 9.6596875 22.89453125 9.484375 C12.33057535 6.96723469 1.67507511 4.98180022 -9 3 C-6 1 -6 1 -2.8125 1.375 C-1.884375 1.58125 -0.95625 1.7875 0 2 C0 1.34 0 0.68 0 0 Z " fill="#DFAB26" transform="translate(111,38)"/>
<path d="M0 0 C3 1 3 1 5.16796875 3.89453125 C8.24609647 7.74823208 11.64466207 8.57493705 16.3125 9.6875 C17.76772368 10.06333525 19.22215924 10.44223557 20.67578125 10.82421875 C21.38557129 11.00774902 22.09536133 11.1912793 22.82666016 11.38037109 C26.30547391 12.37219645 29.63343736 13.68000312 33 15 C25.26036056 17.57987981 13.88256236 13.90667009 6.07421875 12.07421875 C4 11 4 11 2.80859375 8.5703125 C2.54175781 7.72210938 2.27492188 6.87390625 2 6 C1.02763513 4.3170608 0.03435556 2.64556566 -1 1 C-0.67 0.67 -0.34 0.34 0 0 Z " fill="#E767C5" transform="translate(14,28)"/>
<path d="M0 0 C29.07253062 -0.20738746 29.07253062 -0.20738746 43 1 C44.41345703 1.09087891 44.41345703 1.09087891 45.85546875 1.18359375 C50.0506965 1.51040799 52.22898974 1.81120666 55 5 C54.41476563 4.9278125 53.82953125 4.855625 53.2265625 4.78125 C47.25156053 4.13530384 41.37570587 3.94976333 35.375 4 C23.5187878 4.07749975 11.50948765 4.13895118 0 1 C0 0.67 0 0.34 0 0 Z " fill="#F13D22" transform="translate(56,35)"/>
<path d="M0 0 C0.33 0.66 0.66 1.32 1 2 C2.32 2.33 3.64 2.66 5 3 C5 5.97 5 8.94 5 12 C3.02 12 1.04 12 -1 12 C-1.66 9.03 -2.32 6.06 -3 3 C-3.83144531 2.95101562 -4.66289063 2.90203125 -5.51953125 2.8515625 C-6.60621094 2.77679688 -7.69289063 2.70203125 -8.8125 2.625 C-9.89144531 2.55539063 -10.97039062 2.48578125 -12.08203125 2.4140625 C-15 2 -15 2 -18 0 C-12.30566124 -3.6443768 -6.02340031 -2.16842411 0 0 Z " fill="#AFD739" transform="translate(132,48)"/>
<path d="M0 0 C-0.33 0.66 -0.66 1.32 -1 2 C0.32 2.33 1.64 2.66 3 3 C2.01 4.485 2.01 4.485 1 6 C1 6.66 1 7.32 1 8 C-2.96 8 -6.92 8 -11 8 C-11 6.68 -11 5.36 -11 4 C-12.32 3.67 -13.64 3.34 -15 3 C-15 2.01 -15 1.02 -15 0 C-13.25093341 -0.19601608 -11.50068154 -0.38147403 -9.75 -0.5625 C-8.77546875 -0.66691406 -7.8009375 -0.77132812 -6.796875 -0.87890625 C-4.2368648 -0.98974468 -2.41851841 -0.77738092 0 0 Z " fill="#4BC975" transform="translate(104,52)"/>
<path d="M0 0 C0.99 0 1.98 0 3 0 C4.05771739 1.63064764 5.05273046 3.30280873 6 5 C8.52319876 8.21728256 11.32713451 8.94466849 15.1875 10.0625 C16.33992188 10.39894531 17.49234375 10.73539063 18.6796875 11.08203125 C22.44088844 12.12189269 26.20152625 13.10624147 30 14 C26.0391967 15.48404782 22.74529691 14.58195032 18.6875 13.75 C17.41261719 13.49734375 16.13773438 13.2446875 14.82421875 12.984375 C7.77442615 11.1697195 3.10867402 9.16301104 -1 3 C-0.67 2.01 -0.34 1.02 0 0 Z " fill="#FE55AD" transform="translate(17,26)"/>
<path d="M0 0 C0.73863281 0.28875 1.47726563 0.5775 2.23828125 0.875 C2.23828125 1.205 2.23828125 1.535 2.23828125 1.875 C-6.67171875 1.545 -15.58171875 1.215 -24.76171875 0.875 C-24.76171875 0.215 -24.76171875 -0.445 -24.76171875 -1.125 C-16.84544776 -5.70617534 -8.04147915 -2.94275222 0 0 Z " fill="#9C7AAC" transform="translate(81.76171875,49.125)"/>
<path d="M0 0 C5.55204976 -0.17625555 10.27119353 0.14872047 15.6484375 1.48828125 C19.71886907 2.37403962 23.85300949 2.67101119 28 3 C23.99360056 6.53836213 21.00558648 6.42949739 15.83984375 6.3046875 C11.8142784 5.87278365 8.67821538 4.66560696 5 3 C5 2.34 5 1.68 5 1 C3.35 1 1.7 1 0 1 C0 0.67 0 0.34 0 0 Z " fill="#E64752" transform="translate(47,35)"/>
<path d="M0 0 C0 0.33 0 0.66 0 1 C-1.39025391 1.19916016 -1.39025391 1.19916016 -2.80859375 1.40234375 C-4.00613281 1.57894531 -5.20367187 1.75554688 -6.4375 1.9375 C-7.63246094 2.11152344 -8.82742187 2.28554688 -10.05859375 2.46484375 C-12.87955676 2.68985213 -12.87955676 2.68985213 -14 4 C-19.74116691 4.37394574 -25.34445544 3.98357297 -31 3 C-31 2.67 -31 2.34 -31 2 C-28.36 1.67 -25.72 1.34 -23 1 C-23 0.67 -23 0.34 -23 0 C-15.1586052 -0.8895125 -7.83262041 -1.00220537 0 0 Z " fill="#CE8B30" transform="translate(114,42)"/>
<path d="M0 0 C2.89695169 0.28277618 5.7922295 0.57587413 8.6875 0.875 C9.50412109 0.95363281 10.32074219 1.03226563 11.16210938 1.11328125 C15.47008233 1.56675209 19.00778829 2.23202053 23 4 C25.66572015 4.49313497 28.29815717 4.72523632 31 5 C31 5.33 31 5.66 31 6 C19.11414848 8.07201849 10.88860201 5.54790278 0 1 C0 0.67 0 0.34 0 0 Z " fill="#C2679C" transform="translate(39,40)"/>
<path d="M0 0 C3.63 0 7.26 0 11 0 C11.33 1.65 11.66 3.3 12 5 C7.09357516 6.63547495 3.31822976 6.57522753 -1.4375 4.5 C-2.283125 4.005 -3.12875 3.51 -4 3 C-2.68 2.67 -1.36 2.34 0 2 C0 1.34 0 0.68 0 0 Z " fill="#769EA3" transform="translate(78,51)"/>
<path d="M0 0 C3.3 0 6.6 0 10 0 C10.12375 1.134375 10.2475 2.26875 10.375 3.4375 C10.58125 4.613125 10.7875 5.78875 11 7 C11.66 7.33 12.32 7.66 13 8 C7.06 7.01 7.06 7.01 1 6 C0.67 4.02 0.34 2.04 0 0 Z " fill="#FE354D" transform="translate(31,24)"/>
<path d="M0 0 C0.33 0.495 0.66 0.99 1 1.5 C-6.64808364 3.73366929 -14.49571621 2.76544416 -22 0.5 C-22 0.17 -22 -0.16 -22 -0.5 C-3.02766798 -2.27075099 -3.02766798 -2.27075099 0 0 Z " fill="#889B80" transform="translate(103,49.5)"/>
<path d="M0 0 C3.87525126 0.13958804 7.75012805 0.28777888 11.625 0.4375 C12.71941406 0.47681641 13.81382813 0.51613281 14.94140625 0.55664062 C16.00488281 0.59853516 17.06835938 0.64042969 18.1640625 0.68359375 C19.62513428 0.73858032 19.62513428 0.73858032 21.11572266 0.79467773 C24.1254852 1.00893288 27.03295916 1.45931357 30 2 C30 2.33 30 2.66 30 3 C20.95868211 5.33324333 10.99949224 3.93614574 2 2 C1.34 1.34 0.68 0.68 0 0 Z " fill="#AC7CCF" transform="translate(32,45)"/>
<path d="M0 0 C4.09998139 -0.18636279 6.39234195 0.19617097 10 2 C11.03125 2 12.0625 2 13.125 2 C14.07375 2 15.0225 2 16 2 C16.66 2.66 17.32 3.32 18 4 C8.56540447 4.95377059 0.329868 5.10226076 -9 3 C-6 1 -6 1 -2.8125 1.375 C-1.884375 1.58125 -0.95625 1.7875 0 2 C0 1.34 0 0.68 0 0 Z " fill="#E59422" transform="translate(111,38)"/>
<path d="M0 0 C25.60599134 -0.24860186 25.60599134 -0.24860186 28.72265625 2.54296875 C29.35494141 3.26419922 29.35494141 3.26419922 30 4 C29.12214844 3.89171875 29.12214844 3.89171875 28.2265625 3.78125 C19.15059395 2.80006421 10.11465257 2.90975592 1 3 C0.67 2.01 0.34 1.02 0 0 Z " fill="#EF641D" transform="translate(81,36)"/>
<path d="M0 0 C2.125 1.375 2.125 1.375 2.9375 4.5 C2.999375 5.44875 3.06125 6.3975 3.125 7.375 C2.465 7.045 1.805 6.715 1.125 6.375 C1.125 5.715 1.125 5.055 1.125 4.375 C0.29355469 4.32601562 -0.53789063 4.27703125 -1.39453125 4.2265625 C-2.48121094 4.15179688 -3.56789063 4.07703125 -4.6875 4 C-5.76644531 3.93039063 -6.84539062 3.86078125 -7.95703125 3.7890625 C-10.875 3.375 -10.875 3.375 -13.875 1.375 C-9.43467944 -1.46680516 -5.00458222 -1.08795266 0 0 Z " fill="#A5C139" transform="translate(127.875,46.625)"/>
<path d="M0 0 C7.2484945 -0.41640288 13.16914355 0.55833216 20 3 C20 4.32 20 5.64 20 7 C18.68 7 17.36 7 16 7 C15.67 6.34 15.34 5.68 15 5 C10.02984035 3.2756589 5.22179824 2.54966297 0 2 C0 1.34 0 0.68 0 0 Z " fill="#79C348" transform="translate(104,50)"/>
<path d="M0 0 C2.97941998 -0.05455703 5.95781531 -0.09393851 8.9375 -0.125 C10.18370117 -0.15013672 10.18370117 -0.15013672 11.45507812 -0.17578125 C17.27505267 -0.22107288 22.3596123 0.5543305 28 2 C28 2.33 28 2.66 28 3 C21.44665263 3.12495789 14.91867169 2.97052347 8.375 2.625 C7.30862305 2.5787146 7.30862305 2.5787146 6.22070312 2.53149414 C4.47445228 2.4294598 2.73486414 2.22371727 1 2 C0.67 1.34 0.34 0.68 0 0 Z " fill="#CD674D" transform="translate(66,41)"/>
<path d="M0 0 C2.3828125 0.0234375 2.3828125 0.0234375 5.125 0.375 C6.03507812 0.48585937 6.94515625 0.59671875 7.8828125 0.7109375 C8.93082031 0.85402344 8.93082031 0.85402344 10 1 C10 1.99 10 2.98 10 4 C10.66 4.33 11.32 4.66 12 5 C7.71 5 3.42 5 -1 5 C-1.33 4.01 -1.66 3.02 -2 2 C-1.34 1.34 -0.68 0.68 0 0 Z " fill="#45DA59" transform="translate(106,55)"/>
<path d="M0 0 C5.08398207 -0.13811594 9.69994067 0.32910863 14.6875 1.3125 C16.61142578 1.67794922 16.61142578 1.67794922 18.57421875 2.05078125 C21.78974168 2.94174142 23.55633932 3.79142567 26 6 C17.10661693 5.13935003 8.5523918 3.60290185 0 1 C0 0.67 0 0.34 0 0 Z " fill="#EE4F7A" transform="translate(34,35)"/>
<path d="M0 0 C-0.33 0.99 -0.66 1.98 -1 3 C-7.7685324 3.10152799 -14.30324864 3.03026944 -21 2 C-21 1.67 -21 1.34 -21 1 C-14.03220597 -0.32719886 -7.07011089 -0.08825381 0 0 Z " fill="#BB6B6D" transform="translate(83,43)"/>
<path d="M0 0 C0 1.32 0 2.64 0 4 C-10.55808656 4.3690205 -10.55808656 4.3690205 -15 2 C-15 1.67 -15 1.34 -15 1 C-9.94997778 -0.03590199 -5.12583611 -0.10251672 0 0 Z " fill="#6F96DF" transform="translate(74,52)"/>
<path d="M0 0 C1.670625 0.061875 1.670625 0.061875 3.375 0.125 C3.375 0.785 3.375 1.445 3.375 2.125 C6.35351562 2.02734375 6.35351562 2.02734375 9.33203125 1.9296875 C11.375 2.125 11.375 2.125 14.375 4.125 C11.97885874 4.17925226 9.58396147 4.21879027 7.1875 4.25 C6.17719727 4.27513672 6.17719727 4.27513672 5.14648438 4.30078125 C1.08692193 4.34038674 -1.97498815 3.92520002 -5.625 2.125 C-3.625 0.125 -3.625 0.125 0 0 Z " fill="#8FB542" transform="translate(102.625,45.875)"/>
<path d="M0 0 C-1 2 -1 2 -2.890625 2.66796875 C-10.6991046 4.38738561 -10.6991046 4.38738561 -15 3 C-15 2.01 -15 1.02 -15 0 C-13.25093341 -0.19601608 -11.50068154 -0.38147403 -9.75 -0.5625 C-8.77546875 -0.66691406 -7.8009375 -0.77132812 -6.796875 -0.87890625 C-4.2368648 -0.98974468 -2.41851841 -0.77738092 0 0 Z " fill="#6BB281" transform="translate(104,52)"/>
<path d="M0 0 C1.72880982 -0.05449838 3.45812712 -0.09301688 5.1875 -0.125 C6.15042969 -0.14820313 7.11335938 -0.17140625 8.10546875 -0.1953125 C11.12812778 0.0086456 13.26769985 0.73125368 16 2 C16 2.33 16 2.66 16 3 C10.72 3 5.44 3 0 3 C0 2.01 0 1.02 0 0 Z " fill="#C6A32D" transform="translate(109,43)"/>
<path d="M0 0 C3.12498063 -0.02895976 6.2499269 -0.04678483 9.375 -0.0625 C10.70917969 -0.07506836 10.70917969 -0.07506836 12.0703125 -0.08789062 C13.34648438 -0.09272461 13.34648438 -0.09272461 14.6484375 -0.09765625 C15.43395996 -0.10289307 16.21948242 -0.10812988 17.02880859 -0.11352539 C19 0 19 0 21 1 C21 1.66 21 2.32 21 3 C14.07 2.34 7.14 1.68 0 1 C0 0.67 0 0.34 0 0 Z " fill="#848BC3" transform="translate(57,50)"/>
<path d="M0 0 C5.45479185 0.56820748 9.91059256 1.94637945 15 4 C11.28461216 5.23846261 8.28625218 4.71757531 4.5 4.1875 C3.48486328 4.0627832 3.48486328 4.0627832 2.44921875 3.93554688 C-1.03990783 3.46413628 -3.02071703 2.98618865 -6 1 C-3.03 1.33 -0.06 1.66 3 2 C2.01 1.34 1.02 0.68 0 0 Z " fill="#D46ABA" transform="translate(32,39)"/>
<path d="M0 0 C4.98844309 0.6099126 9.60155346 1.63474435 14.4375 3.0625 C16.29181641 3.60583984 16.29181641 3.60583984 18.18359375 4.16015625 C19.11300781 4.43730469 20.04242188 4.71445312 21 5 C17.03032029 6.50644256 13.3934624 5.57370781 9.375 4.75 C8.694375 4.62753906 8.01375 4.50507812 7.3125 4.37890625 C5.3359375 3.984375 5.3359375 3.984375 2 3 C1.34 2.01 0.68 1.02 0 0 Z " fill="#E15C9C" transform="translate(26,35)"/>
<path d="M0 0 C6.93 0.99 13.86 1.98 21 3 C17.23988111 5.50674593 14.3504848 5.62461051 10 5 C6.56520973 3.87624216 3.28300042 2.50695101 0 1 C0 0.67 0 0.34 0 0 Z " fill="#E8423C" transform="translate(54,35)"/>
<path d="M0 0 C4.05723077 1.35241026 5.49085419 3.60926242 8 7 C8 7.99 8 8.98 8 10 C5.46089803 9.61479436 4.27248877 9.29902057 2.515625 7.37109375 C2.09796875 6.73300781 1.6803125 6.09492187 1.25 5.4375 C0.82203125 4.79683594 0.3940625 4.15617187 -0.046875 3.49609375 C-0.51867188 2.75552734 -0.51867188 2.75552734 -1 2 C-0.67 1.34 -0.34 0.68 0 0 Z " fill="#FD5FCA" transform="translate(14,28)"/>
<path d="M0 0 C1.43739513 -0.02712066 2.87493863 -0.04645067 4.3125 -0.0625 C5.51326172 -0.07990234 5.51326172 -0.07990234 6.73828125 -0.09765625 C9 0 9 0 12 1 C12 1.99 12 2.98 12 4 C7.45194365 4.17835515 4.1205746 3.99785435 0 2 C0 1.34 0 0.68 0 0 Z " fill="#60CC50" transform="translate(103,52)"/>
<path d="M0 0 C-2 2 -2 2 -5.2578125 2.1953125 C-6.53398438 2.17210937 -7.81015625 2.14890625 -9.125 2.125 C-11.04699219 2.09792969 -11.04699219 2.09792969 -13.0078125 2.0703125 C-14.48894531 2.03550781 -14.48894531 2.03550781 -16 2 C-13.38117397 -3.23765206 -4.74957069 -1.15141108 0 0 Z " fill="#DE5836" transform="translate(87,39)"/>
<path d="M0 0 C-0.33 0.99 -0.66 1.98 -1 3 C-6.78591511 3.10477512 -12.29309366 2.99250545 -18 2 C-18 1.67 -18 1.34 -18 1 C-11.97968656 0.39034801 -6.05329744 -0.13451772 0 0 Z " fill="#BB874A" transform="translate(101,43)"/>
<path d="M0 0 C1.41750563 0.11509661 2.83401169 0.24253658 4.25 0.375 C5.03890625 0.44460937 5.8278125 0.51421875 6.640625 0.5859375 C9.085877 1.01507113 10.84836903 1.78600638 13 3 C12.01 3.495 12.01 3.495 11 4 C10.67 4.66 10.34 5.32 10 6 C7.5625 5.625 7.5625 5.625 5 5 C4.67 4.34 4.34 3.68 4 3 C2.35 3 0.7 3 -1 3 C-0.67 2.01 -0.34 1.02 0 0 Z " fill="#D377E2" transform="translate(20,40)"/>
<path d="M0 0 C0 1.32 0 2.64 0 4 C-2.97 4 -5.94 4 -9 4 C-9 3.01 -9 2.02 -9 1 C-5.8035914 -0.06546953 -3.34252724 -0.07427838 0 0 Z " fill="#51B5B4" transform="translate(93,56)"/>
<path d="M0 0 C2.1464753 0.11344376 4.29220592 0.24106345 6.4375 0.375 C8.22994141 0.47941406 8.22994141 0.47941406 10.05859375 0.5859375 C11.02925781 0.72257812 11.99992188 0.85921875 13 1 C13.33 1.66 13.66 2.32 14 3 C13.67 3.66 13.34 4.32 13 5 C11.35 5 9.7 5 8 5 C7.67 4.01 7.34 3.02 7 2 C4.69 1.67 2.38 1.34 0 1 C0 0.67 0 0.34 0 0 Z " fill="#CDC32E" transform="translate(125,46)"/>
<path d="M0 0 C2.64 0 5.28 0 8 0 C8 0.66 8 1.32 8 2 C10.64 2 13.28 2 16 2 C12.25816125 4.49455917 10.43756964 4.37606522 6 4 C2.5625 2.5 2.5625 2.5 0 1 C0 0.67 0 0.34 0 0 Z " fill="#67A3BC" transform="translate(74,53)"/>
<path d="M0 0 C4.62 0 9.24 0 14 0 C13.67 0.99 13.34 1.98 13 3 C11.20759337 2.88610125 9.41605165 2.75852313 7.625 2.625 C6.12839844 2.52058594 6.12839844 2.52058594 4.6015625 2.4140625 C2 2 2 2 0 0 Z " fill="#A4807E" transform="translate(72,46)"/>
<path d="M0 0 C1.32 0 2.64 0 4 0 C4.061875 0.763125 4.12375 1.52625 4.1875 2.3125 C4.76935262 5.23051809 4.76935262 5.23051809 7.5625 6.8125 C8.366875 7.204375 9.17125 7.59625 10 8 C8.3125 8.75 8.3125 8.75 6 9 C2.7824885 7.05452793 1.26537113 5.89817919 0.1875 2.25 C0.125625 1.5075 0.06375 0.765 0 0 Z " fill="#FE4888" transform="translate(21,24)"/>
<path d="M0 0 C1.65 0.33 3.3 0.66 5 1 C5.33 2.32 5.66 3.64 6 5 C3.69 5 1.38 5 -1 5 C-0.67 3.35 -0.34 1.7 0 0 Z " fill="#4BC094" transform="translate(94,55)"/>
<path d="M0 0 C1.65 0 3.3 0 5 0 C5 2.31 5 4.62 5 7 C2.525 6.01 2.525 6.01 0 5 C0 3.35 0 1.7 0 0 Z " fill="#FE4173" transform="translate(25,24)"/>
<path d="M0 0 C2.29141286 -0.05384521 4.58318188 -0.09272087 6.875 -0.125 C8.78925781 -0.15980469 8.78925781 -0.15980469 10.7421875 -0.1953125 C14 0 14 0 16 2 C10.16524985 2.85330338 5.55139349 3.48351814 0 1 C0 0.67 0 0.34 0 0 Z " fill="#848EE4" transform="translate(49,51)"/>
<path d="M0 0 C7.50769231 -0.36923077 7.50769231 -0.36923077 10 1.5 C10.495 2.2425 10.495 2.2425 11 3 C7.75 3.75 7.75 3.75 4 4 C1.5625 2.0625 1.5625 2.0625 0 0 Z " fill="#89A762" transform="translate(93,48)"/>
<path d="M0 0 C1.98 0 3.96 0 6 0 C6.33 0.66 6.66 1.32 7 2 C3.32612505 2.85298376 -0.0447393 3.10789471 -3.8125 3.0625 C-5.27623047 3.04896484 -5.27623047 3.04896484 -6.76953125 3.03515625 C-7.87361328 3.01775391 -7.87361328 3.01775391 -9 3 C-6 1 -6 1 -2.8125 1.375 C-1.884375 1.58125 -0.95625 1.7875 0 2 C0 1.34 0 0.68 0 0 Z " fill="#E78520" transform="translate(111,38)"/>
<path d="M0 0 C4.54805635 -0.17835515 7.8794254 0.00214565 12 2 C12 2.66 12 3.32 12 4 C7.6822542 3.49202991 3.96697886 2.80317221 0 1 C0 0.67 0 0.34 0 0 Z " fill="#B9B933" transform="translate(118,46)"/>
<path d="M0 0 C5.75 -0.125 5.75 -0.125 8 1 C8 2.32 8 3.64 8 5 C6.68 5 5.36 5 4 5 C3.896875 4.360625 3.79375 3.72125 3.6875 3.0625 C3.460625 2.381875 3.23375 1.70125 3 1 C2.01 0.67 1.02 0.34 0 0 Z " fill="#7FD044" transform="translate(116,52)"/>
<path d="M0 0 C4.21878192 -0.19622241 7.17010894 0.19769832 11 2 C11 2.33 11 2.66 11 3 C9.741875 3.020625 8.48375 3.04125 7.1875 3.0625 C6.47980469 3.07410156 5.77210937 3.08570313 5.04296875 3.09765625 C3 3 3 3 0 2 C0 1.34 0 0.68 0 0 Z " fill="#90899B" transform="translate(73,48)"/>
<path d="M0 0 C2.64 0 5.28 0 8 0 C8 0.66 8 1.32 8 2 C8.66 2.33 9.32 2.66 10 3 C6.37 2.67 2.74 2.34 -1 2 C-0.67 1.34 -0.34 0.68 0 0 Z " fill="#B39D39" transform="translate(101,44)"/>
<path d="M0 0 C1.6266848 0.28211877 3.25132896 0.57602375 4.875 0.875 C5.77992187 1.03742187 6.68484375 1.19984375 7.6171875 1.3671875 C10 2 10 2 12 4 C10.56138706 3.91253716 9.12402492 3.80434652 7.6875 3.6875 C6.88699219 3.62949219 6.08648437 3.57148437 5.26171875 3.51171875 C2.63727666 2.91793306 1.69179328 2.04219706 0 0 Z " fill="#E24E69" transform="translate(48,37)"/>
<path d="M0 0 C1.670625 0.061875 1.670625 0.061875 3.375 0.125 C3.045 1.115 2.715 2.105 2.375 3.125 C-0.265 2.795 -2.905 2.465 -5.625 2.125 C-3.625 0.125 -3.625 0.125 0 0 Z " fill="#9EA24A" transform="translate(102.625,45.875)"/>
<path d="M0 0 C6.75 0.75 6.75 0.75 9 3 C5.625 3.1875 5.625 3.1875 2 3 C1.34 2.01 0.68 1.02 0 0 Z " fill="#F259A2" transform="translate(26,35)"/>
</svg>
