<?xml version="1.0" encoding="UTF-8"?>
<svg version="1.1" xmlns="http://www.w3.org/2000/svg" width="256" height="256">
<path d="M0 0 C10.86290584 -0.11616109 21.7229331 -0.10652707 32.58587646 0 C34.13396067 0.01514157 35.68205724 0.02907005 37.23016357 0.04174805 C41.59920328 0.07843517 45.96681066 0.13751649 50.33499146 0.23236084 C52.30648049 0.27181145 54.27829472 0.29379069 56.25006104 0.31530762 C57.43914062 0.34769531 58.62822021 0.38008301 59.85333252 0.41345215 C60.88514648 0.43439941 61.91696045 0.45534668 62.9800415 0.47692871 C69.02566819 1.59959471 72.36499096 5.24026128 75.7694397 10.02401733 C83.87493319 21.40483107 93.87061019 33.85125192 108.24493408 36.50817871 C122.28876392 38.23781168 136.58569701 37.27248046 150.66241455 36.37390137 C158.61167538 35.88170056 166.47017833 36.05233211 174.41973877 36.39782715 C175.53163574 36.41885498 176.64353271 36.43988281 177.78912354 36.46154785 C185.77115045 36.68421554 192.06591451 38.16900289 197.91973877 44.02282715 C202.60039155 52.71546802 202.06871541 62.11386939 202.06500244 71.72180176 C202.06836105 72.97647751 202.07171967 74.23115326 202.07518005 75.52384949 C202.083021 78.94537716 202.08635573 82.36684414 202.08699584 85.78837657 C202.08770933 87.93060675 202.08984925 90.07283066 202.09249306 92.21505928 C202.10172656 99.70136033 202.10583029 107.18764364 202.1050415 114.6739502 C202.10444065 121.6324265 202.1149991 128.59082531 202.13078517 135.54928201 C202.14389167 141.54189476 202.14922413 147.53448225 202.14858609 153.52710921 C202.1483321 157.09820353 202.15112872 160.66922883 202.16176414 164.24030876 C202.17330942 168.22505559 202.16867929 172.20969722 202.16265869 176.19445801 C202.1682782 177.36512817 202.17389771 178.53579834 202.1796875 179.74194336 C202.14585706 188.57079475 201.9292154 197.06448579 195.91973877 204.02282715 C188.88040824 209.57306853 182.40382078 210.17444128 173.58334351 210.15653992 C172.34680411 210.15993825 172.34680411 210.15993825 171.08528411 210.16340524 C168.33103198 210.16972062 165.57682936 210.16891746 162.8225708 210.16809082 C160.84454281 210.17108383 158.86651541 210.17448668 156.88848877 210.17826843 C151.52070639 210.18709774 146.15293995 210.18944608 140.785151 210.19008422 C137.43050502 210.19079527 134.07586309 210.19293063 130.72121811 210.19558144 C119.01509087 210.20483096 107.30897501 210.20891677 95.60284424 210.20812988 C84.69540665 210.20752903 73.7880185 210.21808336 62.88059342 210.23387355 C53.51142047 210.24695299 44.14226367 210.25231362 34.77308166 210.25167447 C29.17929144 210.25141963 23.58554518 210.25426359 17.99176407 210.26485252 C12.73045892 210.27454039 7.46923971 210.27460792 2.20793152 210.26733589 C0.27944183 210.26629095 -1.64905323 210.26864759 -3.57753372 210.27469635 C-6.21508931 210.28243192 -8.8523493 210.27776114 -11.48989868 210.27006531 C-12.24847479 210.27520887 -13.00705089 210.28035243 -13.78861415 210.28565186 C-21.38302103 210.23686517 -28.04268881 208.96265913 -34.08026123 204.02282715 C-41.52262423 195.13333801 -40.3692302 183.53914645 -40.33905029 172.61437988 C-40.34176398 170.96102749 -40.34532702 169.30767631 -40.34967041 167.65432739 C-40.35875108 163.18542703 -40.35526824 158.71661951 -40.34891224 154.24771762 C-40.34383066 149.56028932 -40.3485496 144.87286869 -40.35168457 140.18544006 C-40.35531757 132.31652405 -40.35054222 124.44764565 -40.34100342 116.57873535 C-40.33011637 107.49292058 -40.33364895 98.40719555 -40.34465623 89.32138294 C-40.35374356 81.50627134 -40.35500742 73.69118669 -40.34977889 65.87607151 C-40.34666763 61.21459645 -40.34622669 56.55316353 -40.35285187 51.89169121 C-40.35864588 47.50938227 -40.3545909 43.12718865 -40.34306335 38.74489212 C-40.34042791 37.14052713 -40.34116271 35.53615236 -40.34558868 33.93179131 C-40.39428799 14.47971046 -40.39428799 14.47971046 -35.89276123 8.27282715 C-35.3455542 7.47618652 -35.3455542 7.47618652 -34.78729248 6.66345215 C-29.01046717 1.11135459 -23.64819701 0.38712745 -15.95526123 0.27282715 C-14.9324707 0.24462891 -13.90968018 0.21643066 -12.855896 0.18737793 C-8.5708016 0.08658164 -4.28594416 0.04703058 0 0 Z " fill="#330000" transform="translate(47.08026123046875,22.9771728515625)"/>
<path d="M0 0 C10.86290584 -0.11616109 21.7229331 -0.10652707 32.58587646 0 C34.13396067 0.01514157 35.68205724 0.02907005 37.23016357 0.04174805 C41.59920328 0.07843517 45.96681066 0.13751649 50.33499146 0.23236084 C52.30648049 0.27181145 54.27829472 0.29379069 56.25006104 0.31530762 C57.43914062 0.34769531 58.62822021 0.38008301 59.85333252 0.41345215 C60.88514648 0.43439941 61.91696045 0.45534668 62.9800415 0.47692871 C69.77747286 1.73920398 74.37664496 7.18373071 79.06817627 11.90563965 C79.72556793 12.56111786 80.38295959 13.21659607 81.06027222 13.89193726 C82.43922589 15.26953666 83.81568412 16.64963804 85.1897583 18.03210449 C87.3019535 20.15507869 89.42469717 22.26708684 91.54864502 24.3782959 C92.88913113 25.72010239 94.22899737 27.0625285 95.56817627 28.40563965 C96.20556732 29.03898224 96.84295837 29.67232483 97.49966431 30.32485962 C101.91973877 34.79287432 101.91973877 34.79287432 101.91973877 37.02282715 C55.38973877 37.02282715 8.85973877 37.02282715 -39.08026123 37.02282715 C-40.66415848 25.93554643 -41.32880125 16.1867794 -34.78729248 6.66345215 C-29.01046717 1.11135459 -23.64819701 0.38712745 -15.95526123 0.27282715 C-14.9324707 0.24462891 -13.90968018 0.21643066 -12.855896 0.18737793 C-8.5708016 0.08658164 -4.28594416 0.04703058 0 0 Z " fill="#FE9900" transform="translate(47.08026123046875,22.9771728515625)"/>
<path d="M0 0 C6.6 0 13.2 0 20 0 C24.18740147 10.87255119 28.32606101 21.73962069 32.1340332 32.75048828 C33.98741871 38.10933685 35.8700262 43.45698797 37.77734375 48.796875 C38.02160599 49.48153839 38.26586823 50.16620178 38.51753235 50.87161255 C39.9929645 55.00704288 39.9929645 55.00704288 41.47305298 59.14080811 C44.18618597 66.70670023 46.77551775 74.27363167 49 82 C43.39 82 37.78 82 32 82 C30.99222971 79.25262623 29.99358554 76.50250048 29 73.75 C28.71382812 72.97269531 28.42765625 72.19539063 28.1328125 71.39453125 C27.86210937 70.64042969 27.59140625 69.88632813 27.3125 69.109375 C27.06113281 68.41811523 26.80976563 67.72685547 26.55078125 67.01464844 C26 65 26 65 26 61 C15.77 61 5.54 61 -5 61 C-5.99 64.63 -6.98 68.26 -8 72 C-8.97273195 75.34251514 -9.9863727 78.66951031 -11 82 C-15.95 82 -20.9 82 -26 82 C-25.34135867 77.38951068 -24.87288226 74.11950163 -23.390625 69.9296875 C-23.05426025 68.96828857 -22.71789551 68.00688965 -22.37133789 67.01635742 C-21.81627563 65.4613855 -21.81627563 65.4613855 -21.25 63.875 C-20.86384521 62.77712158 -20.47769043 61.67924316 -20.07983398 60.5480957 C-19.21386352 58.08758113 -18.34552003 55.62802001 -17.47412109 53.16943359 C-15.83136308 48.5299316 -14.20678039 43.88411417 -12.58203125 39.23828125 C-11.40928214 35.88787088 -10.23601962 32.53764056 -9.0625 29.1875 C-8.77596558 28.369328 -8.48943115 27.55115601 -8.19421387 26.70819092 C-7.37158593 24.36101817 -6.54736961 22.01440945 -5.72265625 19.66796875 C-5.4771553 18.96690506 -5.23165436 18.26584137 -4.97871399 17.54353333 C-4.01748696 14.81252226 -3.04938193 12.11331613 -1.89233398 9.45825195 C-0.65952001 6.32370066 -0.65952001 6.32370066 0 0 Z " fill="#FA9600" transform="translate(104,94)"/>
<path d="M0 0 C4.95 0 9.9 0 15 0 C15 20.46 15 40.92 15 62 C10.05 62 5.1 62 0 62 C0 41.54 0 21.08 0 0 Z " fill="#FE9900" transform="translate(162,114)"/>
<path d="M0 0 C2.07921786 3.11882678 3.01797236 5.75382714 4.1640625 9.3125 C4.56367187 10.55257812 4.96328125 11.79265625 5.375 13.0703125 C5.57996094 13.71516602 5.78492187 14.36001953 5.99609375 15.02441406 C6.62343524 16.9950846 7.26039131 18.96246033 7.8984375 20.9296875 C11 30.61703531 11 30.61703531 11 34 C4.07 34 -2.86 34 -10 34 C-8.87663626 26.13645379 -8.87663626 26.13645379 -7.66015625 22.9140625 C-7.40258545 22.21474609 -7.14501465 21.51542969 -6.87963867 20.79492188 C-6.47515503 19.72081055 -6.47515503 19.72081055 -6.0625 18.625 C-3.92135649 12.78379361 -2.20129453 7.11568124 -1 1 C-0.67 0.67 -0.34 0.34 0 0 Z " fill="#3F0900" transform="translate(114,107)"/>
<path d="M0 0 C2.5625 1.5 2.5625 1.5 4 4 C4.70476018 8.93332128 4.77041398 10.84437903 2 15 C-2.17528818 17.78352545 -4.04621883 17.78631447 -9 17 C-11.6483191 14.88134472 -12.73807669 13.37782575 -13.375 10.02734375 C-13.57348726 6.70888486 -13.21962523 4.38195691 -11.5625 1.5 C-7.74317604 -0.73570183 -4.31481639 -0.76004105 0 0 Z " fill="#FA9600" transform="translate(174,89)"/>
</svg>
