<?xml version="1.0" encoding="UTF-8"?>
<svg version="1.1" xmlns="http://www.w3.org/2000/svg" width="256" height="256">
<path d="M0 0 C10.86290584 -0.11616109 21.7229331 -0.10652707 32.58587646 0 C34.13396067 0.01514157 35.68205724 0.02907005 37.23016357 0.04174805 C41.59920328 0.07843517 45.96681066 0.13751649 50.33499146 0.23236084 C52.30648049 0.27181145 54.27829472 0.29379069 56.25006104 0.31530762 C57.43914062 0.34769531 58.62822021 0.38008301 59.85333252 0.41345215 C60.88514648 0.43439941 61.91696045 0.45534668 62.9800415 0.47692871 C69.02566819 1.59959471 72.36499096 5.24026128 75.7694397 10.02401733 C83.87493319 21.40483107 93.87061019 33.85125192 108.24493408 36.50817871 C122.28876392 38.23781168 136.58569701 37.27248046 150.66241455 36.37390137 C158.61167538 35.88170056 166.47017833 36.05233211 174.41973877 36.39782715 C175.53163574 36.41885498 176.64353271 36.43988281 177.78912354 36.46154785 C185.77115045 36.68421554 192.06591451 38.16900289 197.91973877 44.02282715 C202.60039155 52.71546802 202.06871541 62.11386939 202.06500244 71.72180176 C202.06836105 72.97647751 202.07171967 74.23115326 202.07518005 75.52384949 C202.083021 78.94537716 202.08635573 82.36684414 202.08699584 85.78837657 C202.08770933 87.93060675 202.08984925 90.07283066 202.09249306 92.21505928 C202.10172656 99.70136033 202.10583029 107.18764364 202.1050415 114.6739502 C202.10444065 121.6324265 202.1149991 128.59082531 202.13078517 135.54928201 C202.14389167 141.54189476 202.14922413 147.53448225 202.14858609 153.52710921 C202.1483321 157.09820353 202.15112872 160.66922883 202.16176414 164.24030876 C202.17330942 168.22505559 202.16867929 172.20969722 202.16265869 176.19445801 C202.1682782 177.36512817 202.17389771 178.53579834 202.1796875 179.74194336 C202.14585706 188.57079475 201.9292154 197.06448579 195.91973877 204.02282715 C188.88040824 209.57306853 182.40382078 210.17444128 173.58334351 210.15653992 C172.34680411 210.15993825 172.34680411 210.15993825 171.08528411 210.16340524 C168.33103198 210.16972062 165.57682936 210.16891746 162.8225708 210.16809082 C160.84454281 210.17108383 158.86651541 210.17448668 156.88848877 210.17826843 C151.52070639 210.18709774 146.15293995 210.18944608 140.785151 210.19008422 C137.43050502 210.19079527 134.07586309 210.19293063 130.72121811 210.19558144 C119.01509087 210.20483096 107.30897501 210.20891677 95.60284424 210.20812988 C84.69540665 210.20752903 73.7880185 210.21808336 62.88059342 210.23387355 C53.51142047 210.24695299 44.14226367 210.25231362 34.77308166 210.25167447 C29.17929144 210.25141963 23.58554518 210.25426359 17.99176407 210.26485252 C12.73045892 210.27454039 7.46923971 210.27460792 2.20793152 210.26733589 C0.27944183 210.26629095 -1.64905323 210.26864759 -3.57753372 210.27469635 C-6.21508931 210.28243192 -8.8523493 210.27776114 -11.48989868 210.27006531 C-12.24847479 210.27520887 -13.00705089 210.28035243 -13.78861415 210.28565186 C-21.38302103 210.23686517 -28.04268881 208.96265913 -34.08026123 204.02282715 C-41.52262423 195.13333801 -40.3692302 183.53914645 -40.33905029 172.61437988 C-40.34176398 170.96102749 -40.34532702 169.30767631 -40.34967041 167.65432739 C-40.35875108 163.18542703 -40.35526824 158.71661951 -40.34891224 154.24771762 C-40.34383066 149.56028932 -40.3485496 144.87286869 -40.35168457 140.18544006 C-40.35531757 132.31652405 -40.35054222 124.44764565 -40.34100342 116.57873535 C-40.33011637 107.49292058 -40.33364895 98.40719555 -40.34465623 89.32138294 C-40.35374356 81.50627134 -40.35500742 73.69118669 -40.34977889 65.87607151 C-40.34666763 61.21459645 -40.34622669 56.55316353 -40.35285187 51.89169121 C-40.35864588 47.50938227 -40.3545909 43.12718865 -40.34306335 38.74489212 C-40.34042791 37.14052713 -40.34116271 35.53615236 -40.34558868 33.93179131 C-40.39428799 14.47971046 -40.39428799 14.47971046 -35.89276123 8.27282715 C-35.3455542 7.47618652 -35.3455542 7.47618652 -34.78729248 6.66345215 C-29.01046717 1.11135459 -23.64819701 0.38712745 -15.95526123 0.27282715 C-14.9324707 0.24462891 -13.90968018 0.21643066 -12.855896 0.18737793 C-8.5708016 0.08658164 -4.28594416 0.04703058 0 0 Z " fill="#00005B" transform="translate(47.08026123046875,22.9771728515625)"/>
<path d="M0 0 C10.86290584 -0.11616109 21.7229331 -0.10652707 32.58587646 0 C34.13396067 0.01514157 35.68205724 0.02907005 37.23016357 0.04174805 C41.59920328 0.07843517 45.96681066 0.13751649 50.33499146 0.23236084 C52.30648049 0.27181145 54.27829472 0.29379069 56.25006104 0.31530762 C57.43914062 0.34769531 58.62822021 0.38008301 59.85333252 0.41345215 C60.88514648 0.43439941 61.91696045 0.45534668 62.9800415 0.47692871 C69.77747286 1.73920398 74.37664496 7.18373071 79.06817627 11.90563965 C79.72556793 12.56111786 80.38295959 13.21659607 81.06027222 13.89193726 C82.43922589 15.26953666 83.81568412 16.64963804 85.1897583 18.03210449 C87.3019535 20.15507869 89.42469717 22.26708684 91.54864502 24.3782959 C92.88913113 25.72010239 94.22899737 27.0625285 95.56817627 28.40563965 C96.20556732 29.03898224 96.84295837 29.67232483 97.49966431 30.32485962 C101.91973877 34.79287432 101.91973877 34.79287432 101.91973877 37.02282715 C55.38973877 37.02282715 8.85973877 37.02282715 -39.08026123 37.02282715 C-40.66415848 25.93554643 -41.32880125 16.1867794 -34.78729248 6.66345215 C-29.01046717 1.11135459 -23.64819701 0.38712745 -15.95526123 0.27282715 C-14.9324707 0.24462891 -13.90968018 0.21643066 -12.855896 0.18737793 C-8.5708016 0.08658164 -4.28594416 0.04703058 0 0 Z " fill="#9898FE" transform="translate(47.08026123046875,22.9771728515625)"/>
<path d="M0 0 C6.6 0 13.2 0 20 0 C20.53367188 1.49144531 21.06734375 2.98289062 21.6171875 4.51953125 C25.27915694 14.73226466 28.96212589 24.93509331 32.75488281 35.10009766 C36.63968955 45.51290316 40.45036327 55.94849599 44.125 66.4375 C44.51558594 67.53956787 44.90617187 68.64163574 45.30859375 69.77709961 C45.66308594 70.79811768 46.01757812 71.81913574 46.3828125 72.87109375 C46.69621582 73.76755615 47.00961914 74.66401855 47.33251953 75.58764648 C48 78 48 78 48 82 C42.72 82 37.44 82 32 82 C29.69 75.4 27.38 68.8 25 62 C10.15 61.505 10.15 61.505 -5 61 C-5.99 64.63 -6.98 68.26 -8 72 C-9.21728587 75.39944383 -10.59984145 78.66858828 -12 82 C-16.62 82 -21.24 82 -26 82 C-25.47025296 76.63378382 -24.53628382 72.1019752 -22.62890625 67.01953125 C-22.39090302 66.37672211 -22.15289978 65.73391296 -21.90768433 65.07162476 C-21.39754079 63.69585053 -20.88369437 62.32144448 -20.36642456 60.94833374 C-18.98853328 57.28760879 -17.64117564 53.61561862 -16.2890625 49.9453125 C-15.87559822 48.82641884 -15.87559822 48.82641884 -15.45378113 47.68492126 C-12.69760437 40.21461885 -10.04552084 32.710656 -7.4375 25.1875 C-7.03281494 24.03419189 -6.62812988 22.88088379 -6.21118164 21.69262695 C-3.73769376 14.53098624 -1.74207607 7.37460319 0 0 Z " fill="#9595FB" transform="translate(87,94)"/>
<path d="M0 0 C4.95 0 9.9 0 15 0 C15.01981934 1.28165039 15.03963867 2.56330078 15.06005859 3.88378906 C15.13614503 8.64001067 15.22485798 13.39592757 15.31738281 18.15185547 C15.35565995 20.21006249 15.39051504 22.26833612 15.421875 24.32666016 C15.46755278 27.28572388 15.52554302 30.24432957 15.5859375 33.203125 C15.59748871 34.12305237 15.60903992 35.04297974 15.62094116 35.99078369 C15.64081085 36.8513739 15.66068054 37.71196411 15.68115234 38.59863281 C15.69447601 39.35364075 15.70779968 40.10864868 15.7215271 40.88653564 C16.04079343 43.30960089 16.72484678 44.92229225 18 47 C22.39380515 49.79605782 27.11632927 49.08331873 32 48 C33.32 47.34 34.64 46.68 36 46 C36.33 30.82 36.66 15.64 37 0 C41.95 0 46.9 0 52 0 C52.33 20.46 52.66 40.92 53 62 C48.38 62 43.76 62 39 62 C38.34 61.01 37.68 60.02 37 59 C36.01 59.66 35.02 60.32 34 61 C27.07117759 64.45203831 17.72250022 64.39226303 10.36328125 62.22265625 C4.69318946 59.18780712 2.133264 53.85637826 0 48 C-0.60893005 44.14859557 -0.58887219 40.41482487 -0.48828125 36.5234375 C-0.48120651 35.47217682 -0.47413177 34.42091614 -0.46684265 33.33779907 C-0.43909827 30.01610831 -0.37639651 26.69617179 -0.3125 23.375 C-0.28739139 21.10809745 -0.26458275 18.84116819 -0.24414062 16.57421875 C-0.18933688 11.04881453 -0.10320316 5.52470353 0 0 Z " fill="#9696FC" transform="translate(142,114)"/>
<path d="M0 0 C0.66 0 1.32 0 2 0 C3.42787757 4.37705236 4.85194322 8.75531917 6.27246094 13.13476562 C6.75643517 14.62501648 7.24145687 16.11492757 7.72753906 17.60449219 C8.42527267 19.74325929 9.11925364 21.88321237 9.8125 24.0234375 C10.03123779 24.69120209 10.24997559 25.35896667 10.4753418 26.04696655 C12 30.77225659 12 30.77225659 12 33 C5.07 33 -1.86 33 -9 33 C-8.30410367 28.12872566 -7.59155524 24.22067625 -6.15234375 19.62890625 C-5.79462891 18.47841797 -5.43691406 17.32792969 -5.06835938 16.14257812 C-4.69517578 14.96115234 -4.32199219 13.77972656 -3.9375 12.5625 C-3.37192383 10.74975586 -3.37192383 10.74975586 -2.79492188 8.90039062 C-1.8680528 5.93206307 -0.93628172 2.96536931 0 0 Z " fill="#070763" transform="translate(96,108)"/>
</svg>
