<?xml version="1.0" encoding="UTF-8"?>
<svg version="1.1" xmlns="http://www.w3.org/2000/svg" width="256" height="256">
<path d="M0 0 C10.86290584 -0.11616109 21.7229331 -0.10652707 32.58587646 0 C34.13396067 0.01514157 35.68205724 0.02907005 37.23016357 0.04174805 C41.59920328 0.07843517 45.96681066 0.13751649 50.33499146 0.23236084 C52.30648049 0.27181145 54.27829472 0.29379069 56.25006104 0.31530762 C57.43914062 0.34769531 58.62822021 0.38008301 59.85333252 0.41345215 C60.88514648 0.43439941 61.91696045 0.45534668 62.9800415 0.47692871 C69.02566819 1.59959471 72.36499096 5.24026128 75.7694397 10.02401733 C83.87493319 21.40483107 93.87061019 33.85125192 108.24493408 36.50817871 C122.28876392 38.23781168 136.58569701 37.27248046 150.66241455 36.37390137 C158.61167538 35.88170056 166.47017833 36.05233211 174.41973877 36.39782715 C175.53163574 36.41885498 176.64353271 36.43988281 177.78912354 36.46154785 C185.77115045 36.68421554 192.06591451 38.16900289 197.91973877 44.02282715 C202.60039155 52.71546802 202.06871541 62.11386939 202.06500244 71.72180176 C202.06836105 72.97647751 202.07171967 74.23115326 202.07518005 75.52384949 C202.083021 78.94537716 202.08635573 82.36684414 202.08699584 85.78837657 C202.08770933 87.93060675 202.08984925 90.07283066 202.09249306 92.21505928 C202.10172656 99.70136033 202.10583029 107.18764364 202.1050415 114.6739502 C202.10444065 121.6324265 202.1149991 128.59082531 202.13078517 135.54928201 C202.14389167 141.54189476 202.14922413 147.53448225 202.14858609 153.52710921 C202.1483321 157.09820353 202.15112872 160.66922883 202.16176414 164.24030876 C202.17330942 168.22505559 202.16867929 172.20969722 202.16265869 176.19445801 C202.1682782 177.36512817 202.17389771 178.53579834 202.1796875 179.74194336 C202.14585706 188.57079475 201.9292154 197.06448579 195.91973877 204.02282715 C188.88040824 209.57306853 182.40382078 210.17444128 173.58334351 210.15653992 C172.34680411 210.15993825 172.34680411 210.15993825 171.08528411 210.16340524 C168.33103198 210.16972062 165.57682936 210.16891746 162.8225708 210.16809082 C160.84454281 210.17108383 158.86651541 210.17448668 156.88848877 210.17826843 C151.52070639 210.18709774 146.15293995 210.18944608 140.785151 210.19008422 C137.43050502 210.19079527 134.07586309 210.19293063 130.72121811 210.19558144 C119.01509087 210.20483096 107.30897501 210.20891677 95.60284424 210.20812988 C84.69540665 210.20752903 73.7880185 210.21808336 62.88059342 210.23387355 C53.51142047 210.24695299 44.14226367 210.25231362 34.77308166 210.25167447 C29.17929144 210.25141963 23.58554518 210.25426359 17.99176407 210.26485252 C12.73045892 210.27454039 7.46923971 210.27460792 2.20793152 210.26733589 C0.27944183 210.26629095 -1.64905323 210.26864759 -3.57753372 210.27469635 C-6.21508931 210.28243192 -8.8523493 210.27776114 -11.48989868 210.27006531 C-12.24847479 210.27520887 -13.00705089 210.28035243 -13.78861415 210.28565186 C-21.38302103 210.23686517 -28.04268881 208.96265913 -34.08026123 204.02282715 C-41.52262423 195.13333801 -40.3692302 183.53914645 -40.33905029 172.61437988 C-40.34176398 170.96102749 -40.34532702 169.30767631 -40.34967041 167.65432739 C-40.35875108 163.18542703 -40.35526824 158.71661951 -40.34891224 154.24771762 C-40.34383066 149.56028932 -40.3485496 144.87286869 -40.35168457 140.18544006 C-40.35531757 132.31652405 -40.35054222 124.44764565 -40.34100342 116.57873535 C-40.33011637 107.49292058 -40.33364895 98.40719555 -40.34465623 89.32138294 C-40.35374356 81.50627134 -40.35500742 73.69118669 -40.34977889 65.87607151 C-40.34666763 61.21459645 -40.34622669 56.55316353 -40.35285187 51.89169121 C-40.35864588 47.50938227 -40.3545909 43.12718865 -40.34306335 38.74489212 C-40.34042791 37.14052713 -40.34116271 35.53615236 -40.34558868 33.93179131 C-40.39428799 14.47971046 -40.39428799 14.47971046 -35.89276123 8.27282715 C-35.3455542 7.47618652 -35.3455542 7.47618652 -34.78729248 6.66345215 C-29.01046717 1.11135459 -23.64819701 0.38712745 -15.95526123 0.27282715 C-14.9324707 0.24462891 -13.90968018 0.21643066 -12.855896 0.18737793 C-8.5708016 0.08658164 -4.28594416 0.04703058 0 0 Z " fill="#001E36" transform="translate(47.08026123046875,22.9771728515625)"/>
<path d="M0 0 C10.86290584 -0.11616109 21.7229331 -0.10652707 32.58587646 0 C34.13396067 0.01514157 35.68205724 0.02907005 37.23016357 0.04174805 C41.59920328 0.07843517 45.96681066 0.13751649 50.33499146 0.23236084 C52.30648049 0.27181145 54.27829472 0.29379069 56.25006104 0.31530762 C57.43914062 0.34769531 58.62822021 0.38008301 59.85333252 0.41345215 C60.88514648 0.43439941 61.91696045 0.45534668 62.9800415 0.47692871 C69.77747286 1.73920398 74.37664496 7.18373071 79.06817627 11.90563965 C79.72556793 12.56111786 80.38295959 13.21659607 81.06027222 13.89193726 C82.43922589 15.26953666 83.81568412 16.64963804 85.1897583 18.03210449 C87.3019535 20.15507869 89.42469717 22.26708684 91.54864502 24.3782959 C92.88913113 25.72010239 94.22899737 27.0625285 95.56817627 28.40563965 C96.20556732 29.03898224 96.84295837 29.67232483 97.49966431 30.32485962 C101.91973877 34.79287432 101.91973877 34.79287432 101.91973877 37.02282715 C55.38973877 37.02282715 8.85973877 37.02282715 -39.08026123 37.02282715 C-40.66415848 25.93554643 -41.32880125 16.1867794 -34.78729248 6.66345215 C-29.01046717 1.11135459 -23.64819701 0.38712745 -15.95526123 0.27282715 C-14.9324707 0.24462891 -13.90968018 0.21643066 -12.855896 0.18737793 C-8.5708016 0.08658164 -4.28594416 0.04703058 0 0 Z " fill="#30A7FE" transform="translate(47.08026123046875,22.9771728515625)"/>
<path d="M0 0 C1 1 1 1 1.09765625 4.16015625 C1.08605469 5.44792969 1.07445312 6.73570313 1.0625 8.0625 C1.05347656 9.35285156 1.04445312 10.64320312 1.03515625 11.97265625 C1.02355469 12.97167969 1.01195312 13.97070312 1 15 C0.36835938 14.855625 -0.26328125 14.71125 -0.9140625 14.5625 C-11.83549402 12.29638164 -24.1794498 10.6115452 -34 17 C-38.86736995 21.39210487 -43.50568027 26.16497288 -44.19970703 32.95336914 C-44.30535354 35.24365269 -44.32196575 37.51989571 -44.3125 39.8125 C-44.32861328 40.58142578 -44.34472656 41.35035156 -44.36132812 42.14257812 C-44.36746775 49.41803119 -42.65844393 56.0354711 -37.65625 61.6171875 C-29.3996718 68.51065137 -20.33140133 69.54309322 -10 69 C-6.6023118 68.49255306 -3.34872528 67.78793536 0 67 C0 71.62 0 76.24 0 81 C-11.61550176 84.87183392 -27.19638864 84.99812732 -38.6328125 80.2578125 C-49.3891723 74.542387 -56.18960158 66.53362532 -60 55 C-60.495 53.515 -60.495 53.515 -61 52 C-61.28268039 48.48423579 -61.27768232 44.96337015 -61.3125 41.4375 C-61.34150391 40.48552734 -61.37050781 39.53355469 -61.40039062 38.55273438 C-61.4919777 28.20339474 -57.81276683 18.84457591 -51 11 C-36.91355221 -1.66880208 -18.13016733 -5.22394652 0 0 Z " fill="#2FA4FA" transform="translate(217,94)"/>
<path d="M0 0 C4.95 0 9.9 0 15 0 C15 22.44 15 44.88 15 68 C27.21 68 39.42 68 52 68 C52 77 52 77 50 82 C33.5 82 17 82 0 82 C0 54.94 0 27.88 0 0 Z " fill="#30A7FD" transform="translate(51,94)"/>
<path d="M0 0 C0 4.95 0 9.9 0 15 C-2.784375 15.4021875 -2.784375 15.4021875 -5.625 15.8125 C-12.92908159 16.98735949 -12.92908159 16.98735949 -19 21 C-19.16041193 24.10085221 -19.25963402 27.18187579 -19.31640625 30.28515625 C-19.33718735 31.21597519 -19.35796844 32.14679413 -19.37937927 33.1058197 C-19.44497931 36.09130182 -19.50380802 39.07687484 -19.5625 42.0625 C-19.6056753 44.08138976 -19.64928925 46.1002702 -19.69335938 48.11914062 C-19.80067129 53.07933297 -19.90190888 58.03961709 -20 63 C-25.28 63 -30.56 63 -36 63 C-36 42.54 -36 22.08 -36 1 C-31.71 1 -27.42 1 -23 1 C-22.01 3.31 -21.02 5.62 -20 8 C-19.32904297 7.38511719 -19.32904297 7.38511719 -18.64453125 6.7578125 C-12.39561165 1.18841295 -8.33818114 -0.28265021 0 0 Z " fill="#2FA4F9" transform="translate(148,113)"/>
</svg>
