<?xml version="1.0" encoding="UTF-8"?>
<svg version="1.1" xmlns="http://www.w3.org/2000/svg" width="256" height="256">
<path d="M0 0 C10.86290584 -0.11616109 21.7229331 -0.10652707 32.58587646 0 C34.13396067 0.01514157 35.68205724 0.02907005 37.23016357 0.04174805 C41.59920328 0.07843517 45.96681066 0.13751649 50.33499146 0.23236084 C52.30648049 0.27181145 54.27829472 0.29379069 56.25006104 0.31530762 C57.43914062 0.34769531 58.62822021 0.38008301 59.85333252 0.41345215 C60.88514648 0.43439941 61.91696045 0.45534668 62.9800415 0.47692871 C69.02566819 1.59959471 72.36499096 5.24026128 75.7694397 10.02401733 C83.87493319 21.40483107 93.87061019 33.85125192 108.24493408 36.50817871 C122.28876392 38.23781168 136.58569701 37.27248046 150.66241455 36.37390137 C158.61167538 35.88170056 166.47017833 36.05233211 174.41973877 36.39782715 C175.53163574 36.41885498 176.64353271 36.43988281 177.78912354 36.46154785 C185.77115045 36.68421554 192.06591451 38.16900289 197.91973877 44.02282715 C202.60039155 52.71546802 202.06871541 62.11386939 202.06500244 71.72180176 C202.06836105 72.97647751 202.07171967 74.23115326 202.07518005 75.52384949 C202.083021 78.94537716 202.08635573 82.36684414 202.08699584 85.78837657 C202.08770933 87.93060675 202.08984925 90.07283066 202.09249306 92.21505928 C202.10172656 99.70136033 202.10583029 107.18764364 202.1050415 114.6739502 C202.10444065 121.6324265 202.1149991 128.59082531 202.13078517 135.54928201 C202.14389167 141.54189476 202.14922413 147.53448225 202.14858609 153.52710921 C202.1483321 157.09820353 202.15112872 160.66922883 202.16176414 164.24030876 C202.17330942 168.22505559 202.16867929 172.20969722 202.16265869 176.19445801 C202.1682782 177.36512817 202.17389771 178.53579834 202.1796875 179.74194336 C202.14585706 188.57079475 201.9292154 197.06448579 195.91973877 204.02282715 C188.88040824 209.57306853 182.40382078 210.17444128 173.58334351 210.15653992 C172.34680411 210.15993825 172.34680411 210.15993825 171.08528411 210.16340524 C168.33103198 210.16972062 165.57682936 210.16891746 162.8225708 210.16809082 C160.84454281 210.17108383 158.86651541 210.17448668 156.88848877 210.17826843 C151.52070639 210.18709774 146.15293995 210.18944608 140.785151 210.19008422 C137.43050502 210.19079527 134.07586309 210.19293063 130.72121811 210.19558144 C119.01509087 210.20483096 107.30897501 210.20891677 95.60284424 210.20812988 C84.69540665 210.20752903 73.7880185 210.21808336 62.88059342 210.23387355 C53.51142047 210.24695299 44.14226367 210.25231362 34.77308166 210.25167447 C29.17929144 210.25141963 23.58554518 210.25426359 17.99176407 210.26485252 C12.73045892 210.27454039 7.46923971 210.27460792 2.20793152 210.26733589 C0.27944183 210.26629095 -1.64905323 210.26864759 -3.57753372 210.27469635 C-6.21508931 210.28243192 -8.8523493 210.27776114 -11.48989868 210.27006531 C-12.24847479 210.27520887 -13.00705089 210.28035243 -13.78861415 210.28565186 C-21.38302103 210.23686517 -28.04268881 208.96265913 -34.08026123 204.02282715 C-41.52262423 195.13333801 -40.3692302 183.53914645 -40.33905029 172.61437988 C-40.34176398 170.96102749 -40.34532702 169.30767631 -40.34967041 167.65432739 C-40.35875108 163.18542703 -40.35526824 158.71661951 -40.34891224 154.24771762 C-40.34383066 149.56028932 -40.3485496 144.87286869 -40.35168457 140.18544006 C-40.35531757 132.31652405 -40.35054222 124.44764565 -40.34100342 116.57873535 C-40.33011637 107.49292058 -40.33364895 98.40719555 -40.34465623 89.32138294 C-40.35374356 81.50627134 -40.35500742 73.69118669 -40.34977889 65.87607151 C-40.34666763 61.21459645 -40.34622669 56.55316353 -40.35285187 51.89169121 C-40.35864588 47.50938227 -40.3545909 43.12718865 -40.34306335 38.74489212 C-40.34042791 37.14052713 -40.34116271 35.53615236 -40.34558868 33.93179131 C-40.39428799 14.47971046 -40.39428799 14.47971046 -35.89276123 8.27282715 C-35.3455542 7.47618652 -35.3455542 7.47618652 -34.78729248 6.66345215 C-29.01046717 1.11135459 -23.64819701 0.38712745 -15.95526123 0.27282715 C-14.9324707 0.24462891 -13.90968018 0.21643066 -12.855896 0.18737793 C-8.5708016 0.08658164 -4.28594416 0.04703058 0 0 Z " fill="#00005B" transform="translate(47.08026123046875,22.9771728515625)"/>
<path d="M0 0 C10.86290584 -0.11616109 21.7229331 -0.10652707 32.58587646 0 C34.13396067 0.01514157 35.68205724 0.02907005 37.23016357 0.04174805 C41.59920328 0.07843517 45.96681066 0.13751649 50.33499146 0.23236084 C52.30648049 0.27181145 54.27829472 0.29379069 56.25006104 0.31530762 C57.43914062 0.34769531 58.62822021 0.38008301 59.85333252 0.41345215 C60.88514648 0.43439941 61.91696045 0.45534668 62.9800415 0.47692871 C69.77747286 1.73920398 74.37664496 7.18373071 79.06817627 11.90563965 C79.72556793 12.56111786 80.38295959 13.21659607 81.06027222 13.89193726 C82.43922589 15.26953666 83.81568412 16.64963804 85.1897583 18.03210449 C87.3019535 20.15507869 89.42469717 22.26708684 91.54864502 24.3782959 C92.88913113 25.72010239 94.22899737 27.0625285 95.56817627 28.40563965 C96.20556732 29.03898224 96.84295837 29.67232483 97.49966431 30.32485962 C101.91973877 34.79287432 101.91973877 34.79287432 101.91973877 37.02282715 C55.38973877 37.02282715 8.85973877 37.02282715 -39.08026123 37.02282715 C-40.66415848 25.93554643 -41.32880125 16.1867794 -34.78729248 6.66345215 C-29.01046717 1.11135459 -23.64819701 0.38712745 -15.95526123 0.27282715 C-14.9324707 0.24462891 -13.90968018 0.21643066 -12.855896 0.18737793 C-8.5708016 0.08658164 -4.28594416 0.04703058 0 0 Z " fill="#9898FE" transform="translate(47.08026123046875,22.9771728515625)"/>
<path d="M0 0 C0.97195312 -0.03738281 1.94390625 -0.07476562 2.9453125 -0.11328125 C10.00846871 -0.20108292 10.00846871 -0.20108292 12.58984375 2.2109375 C14.12561054 6.90516806 15.53597083 11.6031329 16.8125 16.375 C17.25444702 17.99039673 17.25444702 17.99039673 17.70532227 19.63842773 C18.34228135 21.96762632 18.97619471 24.29765947 19.60742188 26.62841797 C20.68055734 30.57955444 21.76751161 34.52666496 22.859375 38.47265625 C23.0437764 39.13921234 23.2281778 39.80576843 23.41816711 40.49252319 C23.78532177 41.81964598 24.15249381 43.14676395 24.51968384 44.47387695 C25.89242487 49.43973116 27.25825312 54.40749343 28.625 59.375 C31.07542285 53.05956868 33.14372167 46.67443998 35.12890625 40.19921875 C35.79348201 38.05138965 36.45819969 35.90360447 37.12304688 33.75585938 C38.16066912 30.39437766 39.19674024 27.03243406 40.23022461 23.66967773 C41.23388498 20.4073666 42.24349802 17.14694514 43.25390625 13.88671875 C43.56227921 12.87735764 43.87065216 11.86799652 44.18836975 10.82804871 C44.47884689 9.89310074 44.76932404 8.95815277 45.06860352 7.99487305 C45.32158707 7.17294968 45.57457062 6.35102631 45.83522034 5.50419617 C46.625 3.375 46.625 3.375 48.625 0.375 C50.67211914 0.01855469 50.67211914 0.01855469 53.16015625 0.046875 C54.49723633 0.05460937 54.49723633 0.05460937 55.86132812 0.0625 C56.79396484 0.083125 57.72660156 0.10375 58.6875 0.125 C59.62400391 0.13015625 60.56050781 0.1353125 61.52539062 0.140625 C68.47109661 0.22109661 68.47109661 0.22109661 69.625 1.375 C69.84556332 3.75696894 70.00523077 6.11620089 70.125 8.50390625 C70.18550034 9.60288994 70.18550034 9.60288994 70.2472229 10.72407532 C70.37810129 13.12831357 70.50187496 15.53285308 70.625 17.9375 C70.71254919 19.59457325 70.80027782 21.25163703 70.88818359 22.90869141 C71.10313873 26.99659436 71.3109677 31.08481784 71.51501465 35.17327881 C71.6133173 37.14113213 71.71328469 39.10890212 71.81347656 41.07666016 C72.52027033 55.18502563 72.75012555 69.24971518 72.625 83.375 C67.345 83.375 62.065 83.375 56.625 83.375 C56.295 60.935 55.965 38.495 55.625 15.375 C54.09875 20.7375 52.5725 26.1 51 31.625 C47.30634923 44.57190339 43.5687518 57.50164562 39.625 70.375 C39.41617188 71.05788086 39.20734375 71.74076172 38.9921875 72.44433594 C37.8764254 76.08998266 36.75231735 79.7328978 35.625 83.375 C30.675 83.375 25.725 83.375 20.625 83.375 C18.50812243 77.14336336 16.55222529 70.89192963 14.75 64.5625 C14.4917041 63.65814209 14.2334082 62.75378418 13.96728516 61.82202148 C11.98253615 54.7998601 10.15724029 47.74564343 8.44970703 40.65112305 C6.71466092 33.49962874 4.67639157 26.44097461 2.625 19.375 C2.56965088 20.56762451 2.51430176 21.76024902 2.45727539 22.98901367 C2.24678951 27.5236875 2.03613648 32.05835355 1.82543945 36.59301758 C1.73522641 38.53507284 1.64505541 40.47713005 1.55493164 42.41918945 C0.92133538 56.07159602 0.27808453 69.72351162 -0.375 83.375 C-5.325 83.375 -10.275 83.375 -15.375 83.375 C-15.46360841 73.26828302 -15.1393201 63.25428966 -14.53515625 53.16796875 C-14.44764999 51.66580977 -14.360369 50.16363765 -14.27330017 48.66145325 C-14.09187217 45.54781858 -13.9074849 42.43437751 -13.72094727 39.32104492 C-13.48177133 35.32438938 -13.25066894 31.32731192 -13.0217371 27.3300581 C-12.84406009 24.24420829 -12.66200285 21.15862904 -12.47860527 18.0731144 C-12.39147456 16.59753993 -12.30577175 15.12188044 -12.22151375 13.64613914 C-12.10407931 11.60001122 -11.98007034 9.55426376 -11.85571289 7.50854492 C-11.78687393 6.34497971 -11.71803497 5.18141449 -11.64710999 3.98258972 C-11.04420946 -1.79491678 -4.69915168 0.06801404 0 0 Z " fill="#9595FA" transform="translate(71.375,92.625)"/>
<path d="M0 0 C6.2610373 4.44371832 8.94454748 9.34717329 11.96484375 16.39453125 C11.96484375 21.67453125 11.96484375 26.95453125 11.96484375 32.39453125 C-0.90515625 32.39453125 -13.77515625 32.39453125 -27.03515625 32.39453125 C-25.15552433 39.91305895 -24.49423956 42.48952481 -18.3203125 46.51171875 C-10.55601169 49.5112606 0.18775174 47.57757462 7.96484375 45.39453125 C7.96484375 49.35453125 7.96484375 53.31453125 7.96484375 57.39453125 C1.7855836 61.1254053 -3.46004169 61.804515 -10.53515625 61.83203125 C-11.32962158 61.84169922 -12.12408691 61.85136719 -12.94262695 61.86132812 C-21.72995858 61.73841574 -28.81074679 59.49387392 -35.2421875 53.421875 C-42.34021546 45.39600025 -43.34891667 37.13426706 -43.25390625 26.71875 C-42.63221983 17.27133669 -39.15954126 10.1350328 -32.22265625 3.70703125 C-23.11692713 -3.81726411 -10.81149351 -5.69767722 0 0 Z " fill="#9696FC" transform="translate(198.03515625,115.60546875)"/>
<path d="M0 0 C2.86924235 2.32641271 4.5326756 4.6449483 6.3125 7.875 C6.3125 9.195 6.3125 10.515 6.3125 11.875 C-1.9375 11.875 -10.1875 11.875 -18.6875 11.875 C-18.6875 5.98471283 -17.67870348 4.95691265 -13.6875 0.875 C-9.54676296 -2.16154049 -4.61941949 -1.93371049 0 0 Z " fill="#070762" transform="translate(189.6875,126.125)"/>
</svg>
