<?xml version="1.0" encoding="UTF-8"?>
<svg version="1.1" xmlns="http://www.w3.org/2000/svg" width="256" height="256">
<path d="M0 0 C10.86290584 -0.11616109 21.7229331 -0.10652707 32.58587646 0 C34.13396067 0.01514157 35.68205724 0.02907005 37.23016357 0.04174805 C41.59920328 0.07843517 45.96681066 0.13751649 50.33499146 0.23236084 C52.30648049 0.27181145 54.27829472 0.29379069 56.25006104 0.31530762 C57.43914062 0.34769531 58.62822021 0.38008301 59.85333252 0.41345215 C60.88514648 0.43439941 61.91696045 0.45534668 62.9800415 0.47692871 C69.02566819 1.59959471 72.36499096 5.24026128 75.7694397 10.02401733 C83.87493319 21.40483107 93.87061019 33.85125192 108.24493408 36.50817871 C122.28876392 38.23781168 136.58569701 37.27248046 150.66241455 36.37390137 C158.61167538 35.88170056 166.47017833 36.05233211 174.41973877 36.39782715 C175.53163574 36.41885498 176.64353271 36.43988281 177.78912354 36.46154785 C185.77115045 36.68421554 192.06591451 38.16900289 197.91973877 44.02282715 C202.60039155 52.71546802 202.06871541 62.11386939 202.06500244 71.72180176 C202.06836105 72.97647751 202.07171967 74.23115326 202.07518005 75.52384949 C202.083021 78.94537716 202.08635573 82.36684414 202.08699584 85.78837657 C202.08770933 87.93060675 202.08984925 90.07283066 202.09249306 92.21505928 C202.10172656 99.70136033 202.10583029 107.18764364 202.1050415 114.6739502 C202.10444065 121.6324265 202.1149991 128.59082531 202.13078517 135.54928201 C202.14389167 141.54189476 202.14922413 147.53448225 202.14858609 153.52710921 C202.1483321 157.09820353 202.15112872 160.66922883 202.16176414 164.24030876 C202.17330942 168.22505559 202.16867929 172.20969722 202.16265869 176.19445801 C202.1682782 177.36512817 202.17389771 178.53579834 202.1796875 179.74194336 C202.14585706 188.57079475 201.9292154 197.06448579 195.91973877 204.02282715 C188.88040824 209.57306853 182.40382078 210.17444128 173.58334351 210.15653992 C172.34680411 210.15993825 172.34680411 210.15993825 171.08528411 210.16340524 C168.33103198 210.16972062 165.57682936 210.16891746 162.8225708 210.16809082 C160.84454281 210.17108383 158.86651541 210.17448668 156.88848877 210.17826843 C151.52070639 210.18709774 146.15293995 210.18944608 140.785151 210.19008422 C137.43050502 210.19079527 134.07586309 210.19293063 130.72121811 210.19558144 C119.01509087 210.20483096 107.30897501 210.20891677 95.60284424 210.20812988 C84.69540665 210.20752903 73.7880185 210.21808336 62.88059342 210.23387355 C53.51142047 210.24695299 44.14226367 210.25231362 34.77308166 210.25167447 C29.17929144 210.25141963 23.58554518 210.25426359 17.99176407 210.26485252 C12.73045892 210.27454039 7.46923971 210.27460792 2.20793152 210.26733589 C0.27944183 210.26629095 -1.64905323 210.26864759 -3.57753372 210.27469635 C-6.21508931 210.28243192 -8.8523493 210.27776114 -11.48989868 210.27006531 C-12.24847479 210.27520887 -13.00705089 210.28035243 -13.78861415 210.28565186 C-21.38302103 210.23686517 -28.04268881 208.96265913 -34.08026123 204.02282715 C-41.52262423 195.13333801 -40.3692302 183.53914645 -40.33905029 172.61437988 C-40.34176398 170.96102749 -40.34532702 169.30767631 -40.34967041 167.65432739 C-40.35875108 163.18542703 -40.35526824 158.71661951 -40.34891224 154.24771762 C-40.34383066 149.56028932 -40.3485496 144.87286869 -40.35168457 140.18544006 C-40.35531757 132.31652405 -40.35054222 124.44764565 -40.34100342 116.57873535 C-40.33011637 107.49292058 -40.33364895 98.40719555 -40.34465623 89.32138294 C-40.35374356 81.50627134 -40.35500742 73.69118669 -40.34977889 65.87607151 C-40.34666763 61.21459645 -40.34622669 56.55316353 -40.35285187 51.89169121 C-40.35864588 47.50938227 -40.3545909 43.12718865 -40.34306335 38.74489212 C-40.34042791 37.14052713 -40.34116271 35.53615236 -40.34558868 33.93179131 C-40.39428799 14.47971046 -40.39428799 14.47971046 -35.89276123 8.27282715 C-35.3455542 7.47618652 -35.3455542 7.47618652 -34.78729248 6.66345215 C-29.01046717 1.11135459 -23.64819701 0.38712745 -15.95526123 0.27282715 C-14.9324707 0.24462891 -13.90968018 0.21643066 -12.855896 0.18737793 C-8.5708016 0.08658164 -4.28594416 0.04703058 0 0 Z " fill="#001E36" transform="translate(47.08026123046875,22.9771728515625)"/>
<path d="M0 0 C10.86290584 -0.11616109 21.7229331 -0.10652707 32.58587646 0 C34.13396067 0.01514157 35.68205724 0.02907005 37.23016357 0.04174805 C41.59920328 0.07843517 45.96681066 0.13751649 50.33499146 0.23236084 C52.30648049 0.27181145 54.27829472 0.29379069 56.25006104 0.31530762 C57.43914062 0.34769531 58.62822021 0.38008301 59.85333252 0.41345215 C60.88514648 0.43439941 61.91696045 0.45534668 62.9800415 0.47692871 C69.77747286 1.73920398 74.37664496 7.18373071 79.06817627 11.90563965 C79.72556793 12.56111786 80.38295959 13.21659607 81.06027222 13.89193726 C82.43922589 15.26953666 83.81568412 16.64963804 85.1897583 18.03210449 C87.3019535 20.15507869 89.42469717 22.26708684 91.54864502 24.3782959 C92.88913113 25.72010239 94.22899737 27.0625285 95.56817627 28.40563965 C96.20556732 29.03898224 96.84295837 29.67232483 97.49966431 30.32485962 C101.91973877 34.79287432 101.91973877 34.79287432 101.91973877 37.02282715 C55.38973877 37.02282715 8.85973877 37.02282715 -39.08026123 37.02282715 C-40.66415848 25.93554643 -41.32880125 16.1867794 -34.78729248 6.66345215 C-29.01046717 1.11135459 -23.64819701 0.38712745 -15.95526123 0.27282715 C-14.9324707 0.24462891 -13.90968018 0.21643066 -12.855896 0.18737793 C-8.5708016 0.08658164 -4.28594416 0.04703058 0 0 Z " fill="#30A7FE" transform="translate(47.08026123046875,22.9771728515625)"/>
<path d="M0 0 C1.41481626 -0.01139816 2.82959383 -0.03165143 4.24414062 -0.06152344 C15.62636246 -0.30186999 27.29556812 0.54355755 36.33911133 8.29516602 C42.83645042 15.60859601 44.89964841 22.19066256 44.71020508 31.97485352 C43.92283296 39.01976192 40.75094873 44.2784227 35.71411133 49.17016602 C25.37103201 57.27224481 14.89248703 56.67271115 2.33911133 56.29516602 C2.33911133 65.20516602 2.33911133 74.11516602 2.33911133 83.29516602 C-2.94088867 83.29516602 -8.22088867 83.29516602 -13.66088867 83.29516602 C-13.68343956 72.62096526 -13.70180368 61.94678021 -13.71270084 51.27256107 C-13.71792971 46.3166268 -13.72502741 41.3607096 -13.73632812 36.40478516 C-13.74715689 31.62617766 -13.75316548 26.84758663 -13.75576591 22.06896782 C-13.75762018 20.24162982 -13.76124083 18.41429277 -13.76661873 16.58696175 C-13.77382903 14.03663273 -13.77487962 11.48637265 -13.77441406 8.93603516 C-13.77800934 8.17286987 -13.78160461 7.40970459 -13.78530884 6.62341309 C-13.76724404 -2.46159118 -7.49392252 0.04190371 0 0 Z " fill="#2FA3F7" transform="translate(92.660888671875,92.704833984375)"/>
<path d="M0 0 C1.06927734 -0.0009668 1.06927734 -0.0009668 2.16015625 -0.00195312 C7.19542014 0.04867567 11.4905038 0.60100127 16.25 2.1875 C16.25 6.8075 16.25 11.4275 16.25 16.1875 C14.455625 15.6925 12.66125 15.1975 10.8125 14.6875 C5.39538122 13.33642191 0.81472257 12.74585535 -4.75 13.1875 C-5.74 13.8475 -6.73 14.5075 -7.75 15.1875 C-8.33350505 17.64459375 -8.33350505 17.64459375 -7.75 20.1875 C-4.92012602 22.87372556 -1.6595059 24.12033226 1.93725586 25.5324707 C9.03740104 28.34724394 15.66161221 30.98472162 19.25 38.1875 C21.22764426 44.42313342 20.45634033 49.52440032 17.4765625 55.28125 C14.12560222 60.48911184 9.04262082 62.57052242 3.25 64.1875 C0.04901393 64.58737039 -3.09018178 64.60879029 -6.3125 64.5625 C-7.12396484 64.57410156 -7.93542969 64.58570313 -8.77148438 64.59765625 C-14.0132609 64.57227234 -19.80572385 64.13177615 -23.75 60.1875 C-23.82258946 58.00110547 -23.83373783 55.81249611 -23.8125 53.625 C-23.80347656 52.42746094 -23.79445312 51.22992188 -23.78515625 49.99609375 C-23.77355469 49.06925781 -23.76195312 48.14242187 -23.75 47.1875 C-20.63777853 47.73923634 -17.94044064 48.45773598 -15.0625 49.75 C-10.32154664 51.5727529 -5.77432334 51.85970793 -0.75 51.1875 C2.28465702 49.87522566 2.28465702 49.87522566 4.25 48.1875 C4.09392658 45.76113029 4.09392658 45.76113029 3.25 43.1875 C1.3132745 41.67290904 1.3132745 41.67290904 -1.1875 40.6875 C-2.53908203 40.06488281 -2.53908203 40.06488281 -3.91796875 39.4296875 C-4.85253906 39.01976562 -5.78710938 38.60984375 -6.75 38.1875 C-13.45228861 35.23262239 -18.69911441 32.4955211 -22.75 26.1875 C-24.33467944 21.43346167 -24.76337914 16.73685291 -22.87890625 11.99609375 C-19.86552148 6.78936007 -15.77341778 2.62248873 -10.01953125 0.5703125 C-6.68623011 0.00806893 -3.37039753 -0.00311497 0 0 Z " fill="#30A5FB" transform="translate(168.75,112.8125)"/>
<path d="M0 0 C16.37735849 -0.58490566 16.37735849 -0.58490566 23 4 C25.97643318 7.16846113 26.89478133 9.90572581 27.3125 14.25 C26.9403888 18.71533437 25.88275653 21.57617225 23 25 C15.5708951 29.74198185 8.91450448 29 0 29 C0 19.43 0 9.86 0 0 Z " fill="#001F38" transform="translate(95,107)"/>
</svg>
