<?xml version="1.0" encoding="UTF-8"?>
<svg version="1.1" xmlns="http://www.w3.org/2000/svg" width="256" height="256">
<path d="M0 0 C1.85820405 -0.01440225 3.71638737 -0.03173432 5.57453918 -0.05177307 C10.61620926 -0.09648438 15.65694857 -0.09647319 20.69877076 -0.08570409 C24.91092754 -0.08047219 29.12290028 -0.09633459 33.33502311 -0.11195368 C43.27525337 -0.14818875 53.21501855 -0.14750421 63.15527344 -0.12402344 C73.40094359 -0.10047169 83.64504345 -0.13913811 93.89047033 -0.20856005 C102.69416218 -0.26599808 111.49735767 -0.28458026 120.30122775 -0.27220815 C125.55618431 -0.26521867 130.81006842 -0.27284368 136.06485939 -0.31788826 C141.00931642 -0.35858545 145.9513826 -0.35061018 150.89578056 -0.30576134 C152.70613535 -0.29735989 154.51666303 -0.30587125 156.32683563 -0.33289337 C169.98308945 -0.52165307 169.98308945 -0.52165307 175.05924034 3.15374947 C177.3319379 5.64684728 179.19560076 8.12268318 181.02026367 10.95336914 C181.87203557 11.99996039 182.73639171 13.03666134 183.62182617 14.05493164 C184.28956055 14.88766602 184.95729492 15.72040039 185.64526367 16.57836914 C188.44530554 20.19150382 188.44530554 20.19150382 191.74790955 23.3117981 C196.02188621 27.05412393 197.43762628 30.39249086 197.82847118 36.07867622 C197.97056962 40.37765741 197.95815811 44.66834601 197.92260742 48.96899414 C197.93211884 50.88079525 197.94469338 52.79258325 197.96012878 54.7043457 C197.9928403 59.81537608 197.98313846 64.92550621 197.9648819 70.03657532 C197.95300935 75.31849495 197.97956896 80.60021584 198.00219727 85.88208008 C198.03719936 95.32481445 198.03928134 104.76719425 198.02632141 114.20997238 C198.01614169 122.79061277 198.04392701 131.37077224 198.08451271 139.95130157 C198.1334868 150.70708721 198.16957138 161.46310443 198.15307617 172.21899414 C198.15502487 173.18973877 198.15697357 174.1604834 198.15898132 175.16064453 C198.0989789 192.78859012 198.0989789 192.78859012 192.02026367 199.95336914 C186.23072399 204.4692101 181.80682648 205.10216433 174.66499329 205.10054016 C173.80236144 205.10421685 172.93972959 205.10789354 172.05095738 205.11168164 C169.1492 205.12272876 166.24747841 205.12656407 163.34570312 205.13037109 C161.26959621 205.13663498 159.19349042 205.14328171 157.11738586 205.15028381 C151.46845009 205.16770069 145.81952278 205.17824753 140.1705668 205.18648934 C136.64189459 205.19163821 133.11322502 205.197714 129.58455467 205.20400047 C118.54595827 205.22305476 107.50736857 205.23728521 96.46875888 205.24561244 C83.7233463 205.25538573 70.97810735 205.28170678 58.23275596 205.32211334 C48.38381817 205.35226666 38.53493018 205.36708059 28.68594712 205.37039346 C22.80253443 205.37274487 16.91930719 205.38171745 11.03594398 205.40685463 C5.49965584 205.43012641 -0.03632464 205.43437203 -5.572649 205.42409325 C-7.60273639 205.42359756 -9.63283887 205.42992768 -11.66287994 205.44364929 C-14.43880384 205.46136005 -17.21362266 205.45426598 -19.98954773 205.44111633 C-20.78907968 205.45208558 -21.58861163 205.46305483 -22.41237181 205.47435647 C-28.01958271 205.41042138 -32.28260819 204.06057228 -36.97973633 200.95336914 C-47.11134573 190.28851714 -44.14919055 172.99822116 -44.10473633 159.26586914 C-44.10152374 158.2694339 -44.09831116 157.27299866 -44.09500122 156.24636841 C-44.07817599 151.60523661 -44.0586455 146.9641381 -44.03340149 142.32304382 C-43.98914222 133.93829105 -43.97866745 125.55405712 -43.98999023 117.16918945 C-44.00308597 107.27636596 -43.98809353 97.38392516 -43.94805908 87.49117184 C-43.92631447 81.88371769 -43.9167879 76.27681868 -43.93560791 70.66934204 C-43.95300855 65.2972702 -43.93665888 59.92628505 -43.89618492 54.55434799 C-43.88687714 52.54667953 -43.88956504 50.53891498 -43.90500832 48.53128433 C-44.02656814 31.1474396 -44.02656814 31.1474396 -39.61694336 25.39941406 C-38.43726206 24.2171531 -37.22628294 23.06490434 -35.97973633 21.95336914 C-34.93106082 20.73529572 -33.89586695 19.50531739 -32.88208008 18.25805664 C-31.89595726 17.11296514 -30.9077049 15.96970378 -29.91723633 14.82836914 C-29.42674805 14.25989258 -28.93625977 13.69141602 -28.4309082 13.10571289 C-27.46681859 11.98833176 -26.48983259 10.88190055 -25.49811077 9.78896999 C-23.94518951 8.03799719 -23.94518951 8.03799719 -23.00980091 6.1207056 C-18.22922673 -1.85881523 -8.15118103 -0.04752818 0 0 Z " fill="#000B1D" transform="translate(49.979736328125,27.046630859375)"/>
<path d="M0 0 C0.77123371 -0.00876451 1.54246741 -0.01752902 2.33707184 -0.02655911 C4.93557523 -0.05338499 7.5339429 -0.06570373 10.1325531 -0.07794189 C11.9901491 -0.09374034 13.84773894 -0.11027802 15.70532227 -0.12750244 C21.81959652 -0.17999809 27.9338985 -0.21056919 34.04832458 -0.23907471 C36.15248572 -0.24979297 38.25664666 -0.26054798 40.36080742 -0.27133942 C49.11506176 -0.31461051 57.86930865 -0.35208186 66.62364292 -0.3745842 C79.17090819 -0.40704663 91.716933 -0.47334222 104.26373059 -0.58738589 C113.08422089 -0.66482418 121.90437978 -0.70385435 130.72520107 -0.71442533 C135.99378177 -0.72172918 141.26104041 -0.74572865 146.52925301 -0.8106308 C151.4898663 -0.87086439 156.44836056 -0.88339493 161.4092617 -0.85986328 C163.22614067 -0.85942231 165.04311885 -0.87599316 166.85965729 -0.91117096 C180.56963128 -1.16213073 180.56963128 -1.16213073 185.64980888 2.50328827 C187.92383898 4.99773134 189.78456634 7.47346533 191.60691833 10.30780029 C192.45850636 11.35454115 193.32283032 12.3912804 194.20848083 13.40936279 C194.87621521 14.24209717 195.54394958 15.07483154 196.23191833 15.93280029 C199.48783788 19.97265828 202.8499717 23.86045605 206.39207458 27.65155029 C207.60691833 29.30780029 207.60691833 29.30780029 207.60691833 32.30780029 C128.40691833 32.30780029 49.20691833 32.30780029 -32.39308167 32.30780029 C-30.14427913 26.68579395 -30.14427913 26.68579395 -27.88917542 24.14373779 C-27.39981506 23.5839624 -26.91045471 23.02418701 -26.40626526 22.44744873 C-25.88628967 21.86511475 -25.36631409 21.28278076 -24.83058167 20.68280029 C-23.74748521 19.44675371 -22.66546607 18.20976235 -21.58448792 16.97186279 C-21.04710999 16.35859131 -20.50973206 15.74531982 -19.95606995 15.11346436 C-16.9302947 11.61789521 -14.04002564 8.01354046 -11.13526917 4.41717529 C-7.56913041 0.09942881 -5.38318042 0.00736824 0 0 Z " fill="#7A7A7A" transform="translate(39.39308166503906,27.69219970703125)"/>
<path d="M0 0 C40.9221902 0 40.9221902 0 50 7 C55.21218513 12.48651066 56.49847749 17.73766569 56.3984375 25.140625 C55.85232839 29.05976097 54.31623126 31.83182392 52.19140625 35.125 C50.83442513 37.09358894 50.83442513 37.09358894 50 40 C50.928125 40.721875 51.85625 41.44375 52.8125 42.1875 C55.69849578 44.43216339 57.41852295 46.688201 59 50 C59.8765714 57.05205637 60.23520507 65.11658363 56.39453125 71.359375 C50.17412114 78.67750454 42.33964908 81.66576442 33 83 C22.11 83 11.22 83 0 83 C0 55.61 0 28.22 0 0 Z " fill="#79797A" transform="translate(82,93)"/>
<path d="M0 0 C0 4.95 0 9.9 0 15 C-4.34570312 15.5859375 -4.34570312 15.5859375 -8.69140625 16.171875 C-12.60532239 17.15150926 -16.05642984 18.18091386 -19 21 C-20.03999042 24.10572415 -19.95525254 27.10740011 -19.90234375 30.359375 C-19.92078087 31.71594208 -19.92078087 31.71594208 -19.93959045 33.09991455 C-19.97134521 35.98409966 -19.95503718 38.86573447 -19.9375 41.75 C-19.95060745 43.70705504 -19.96684651 45.66409179 -19.98632812 47.62109375 C-20.02720462 52.41460742 -20.02498646 57.20639538 -20 62 C-24.95 62 -29.9 62 -35 62 C-35.33 41.87 -35.66 21.74 -36 1 C-31.38 1 -26.76 1 -22 1 C-21.34 3.31 -20.68 5.62 -20 8 C-19.48050781 7.59007813 -18.96101563 7.18015625 -18.42578125 6.7578125 C-11.82944162 1.66119519 -8.67700575 0 0 0 Z " fill="#7A7A7A" transform="translate(189,114)"/>
<path d="M0 0 C3.01125 -0.061875 6.0225 -0.12375 9.125 -0.1875 C10.06230957 -0.21481201 10.99961914 -0.24212402 11.96533203 -0.27026367 C18.36018968 -0.33359932 22.59507262 0.72164774 27.375 5.25 C29.48857708 8.82682275 29.58503686 10.90474201 29 15 C26.43701899 19.33735247 23.63392498 21.16834722 19 23 C15.6945833 23.34812595 12.44374115 23.28420391 9.125 23.1875 C6.11375 23.125625 3.1025 23.06375 0 23 C0 15.41 0 7.82 0 0 Z " fill="#010C1E" transform="translate(97,140)"/>
<path d="M0 0 C18.69148936 -0.50066489 18.69148936 -0.50066489 25 4.625 C26.55666834 8.32208732 26.84072988 12.07438726 26 16 C24.67578125 18.765625 24.67578125 18.765625 22 21 C18.23447097 21.6217564 14.5531524 21.4693559 10.75 21.3125 C9.71875 21.28994141 8.6875 21.26738281 7.625 21.24414062 C5.08271187 21.18529136 2.54117107 21.09561262 0 21 C0 14.07 0 7.14 0 0 Z " fill="#010C1E" transform="translate(97,106)"/>
</svg>
